<?xml version="1.0" standalone="no"?>
<!DOCTYPE svg PUBLIC "-//W3C//DTD SVG 1.1//EN" "http://www.w3.org/Graphics/SVG/1.1/DTD/svg11.dtd" >
<svg xmlns="http://www.w3.org/2000/svg">
<metadata></metadata>
<defs>
<font id="macarthur_yachtingregular" horiz-adv-x="1014" >
<font-face units-per-em="2048" ascent="1638" descent="-410" />
<missing-glyph horiz-adv-x="508" />
<glyph horiz-adv-x="2048" />
<glyph horiz-adv-x="2048" />
<glyph unicode="&#xd;" horiz-adv-x="508" />
<glyph unicode=" "  horiz-adv-x="508" />
<glyph unicode="&#x09;" horiz-adv-x="508" />
<glyph unicode="&#xa0;" horiz-adv-x="508" />
<glyph unicode="!" horiz-adv-x="672" d="M176 1280v54q42 54 82 54h15q97 -24 97 -81v-101q0 -129 -8 -325q15 -60 15 -87q-7 -36 -7 -41q0 -27 67 -304q0 -80 -104 -88q-19 3 -75 54l8 34v14q0 6 -8 6l15 27q-7 21 -15 21q8 20 15 20q-9 60 -15 74l8 14q-15 150 -38 216l8 47q0 12 -15 41q7 88 7 142v74l8 40 q0 14 -60 95zM251 172q0 41 82 88q67 0 119 -74v-48q-18 -74 -97 -74h-30q-67 15 -67 88q-7 0 -7 20z" />
<glyph unicode="&#x22;" horiz-adv-x="672" d="M106 1369q35 160 46 172l27 19h19q24 0 55 -109q-10 -71 -28 -109q0 -10 9 -28q0 -21 -18 -136q18 -30 18 -55v-18q0 -13 -36 -27q-92 0 -92 291zM399 1369q0 227 92 227q73 0 73 -91v-36q-70 -250 -101 -264q-47 0 -55 27v64q0 38 -9 73z" />
<glyph unicode="#" horiz-adv-x="1336" d="M-16 324q0 115 96 152q90 -17 123 -17q184 61 184 77q18 213 18 244l-18 9q-55 0 -166 -93q-135 0 -176 160q57 85 351 85q70 12 70 93q27 166 27 186l-9 34q9 33 9 59q-9 0 -9 8q95 76 123 76h17q72 -84 79 -84l-9 -34l9 -42q0 -9 -44 -60v-59q-44 -92 -44 -101 q10 0 27 -8q101 0 122 152q27 0 62 211q79 42 105 42q48 -11 88 -110v-25q-62 -62 -123 -161v-25q17 0 17 -8q282 76 290 76q61 0 105 -93q0 -33 -88 -68q-28 17 -52 17h-53q-280 -61 -280 -135q-36 -143 -36 -211l18 -9q259 76 298 110q88 -8 88 -42q0 -73 -246 -144 q-175 -67 -175 -110q-26 -196 -26 -278l8 -43q-11 0 -61 -177h-9q-28 0 -61 59q9 34 9 59l-9 17q26 42 26 338l-17 8q-149 -21 -149 -118l-9 -59q0 -31 35 -203q-12 -93 -79 -93q-70 0 -70 119q0 48 9 211q-14 34 -27 34q-95 -15 -149 -102q-20 0 -52 -25h-35 q-132 31 -132 101zM510 569h9q166 21 166 102l18 219l-18 9q-124 0 -140 -178q-17 -25 -35 -126v-26z" />
<glyph unicode="$" d="M46 -126q0 82 164 158q36 48 41 48q0 8 -8 23l16 238q0 229 -41 229q-78 26 -131 118q0 98 82 135q25 38 25 118v8q0 135 -17 135l8 39q9 183 9 190l-25 103q26 95 90 95q82 0 107 -127q-66 -189 -66 -245v-95q3 -16 16 -16q82 32 91 64v23q0 8 -9 8q17 0 41 277l-16 32 q0 134 82 134q64 0 107 -87v-63q-66 -79 -66 -214h25q27 21 73 32q123 -13 123 -95v-32q-31 -54 -90 -87h-74q-30 -31 -90 -39q-8 -41 -16 -174q12 -32 24 -32h17q96 22 115 40h24q127 0 156 -63q90 -104 90 -182v-103q0 -38 -123 -198q0 -9 -66 -55q0 -7 -245 -182v-31 q0 -169 65 -198v-79l-41 -8h-8q-123 0 -123 245v8h-16q-19 -2 -82 -158l-17 -8q-32 8 -32 47v40q-55 0 -107 -87h-16q-66 0 -66 63v8zM325 839q1 -33 32 -64q33 8 33 48v55q0 16 -16 16q-31 -7 -49 -55zM357 254q3 -16 17 -16q16 0 16 16v8q0 15 -16 15q-17 -2 -17 -15v-8z M357 601q9 -118 9 -173h24v158q0 15 -16 15h-17zM366 348q2 -15 16 -15l8 15v16h-24v-16zM489 182q92 0 205 182q47 0 57 206q0 55 -82 55l-49 -8q-43 8 -82 8h-17q-16 -2 -16 -16v-8q-16 -233 -16 -253v-55l8 -47q-8 -13 -8 -40v-24z" />
<glyph unicode="%" horiz-adv-x="1610" d="M2 72q7 105 307 373l188 217v26h-10q-144 -52 -228 -52q0 17 -79 26q-119 191 -119 260q20 139 20 148l-10 61q48 130 129 130v8l20 -8h29l50 8q210 -91 237 -130q139 -243 149 -243h10q442 314 633 495q0 43 70 52q18 0 59 -43q0 -33 -129 -235q-231 -112 -613 -468 q-184 -233 -238 -278l-228 -287q0 -148 -138 -182q-109 45 -109 122zM269 896q0 -87 79 -87h10q129 46 129 157q-16 39 -59 60h-20q-101 -37 -139 -130zM665 236q97 322 168 322q39 8 80 8q70 -17 79 -17h128q248 -140 248 -174q10 -47 10 -78q0 -59 -149 -252 q-120 -86 -297 -86v-9q-247 52 -247 217q-13 0 -20 69zM863 158q51 -43 89 -43h40q218 43 218 156v52q-82 91 -109 104h-40q-53 -53 -138 -95q-44 -26 -60 -174z" />
<glyph unicode="&#x26;" horiz-adv-x="1683" d="M40 250l11 36v86q0 151 333 307q86 60 86 71l-86 114l-54 172q11 39 11 57h-11q37 103 183 200q101 143 215 143q94 0 162 -86q31 -38 183 -64q0 -21 64 -71v-65q0 -16 11 -28q-79 -115 -172 -179q-226 -158 -226 -186v-28q0 -20 86 -136q0 -53 129 -179h32 q301 236 301 308q18 71 151 71q86 -26 86 -114q0 -14 -204 -193q0 -16 -97 -72q-48 -69 -86 -100l-32 -35q114 -46 161 -136v-7l-11 -43q32 0 32 -22q0 -71 -129 -71q-122 30 -193 121q0 36 -33 36h-10q-59 0 -344 -143q-111 -14 -151 -14q-43 14 -75 14q0 -14 -22 -14 l-32 14h-97q-161 49 -161 236h-11zM212 300q0 -150 172 -150h97q233 50 323 121q0 65 -97 143q-68 158 -140 208h-21q-273 -173 -334 -322zM502 1000q66 -106 130 -114l258 178l10 51q0 94 -86 128h-107q-102 -34 -129 -93q0 -21 -76 -143v-7z" />
<glyph unicode="'" horiz-adv-x="346" d="M81 1194q0 35 18 102v12l-12 42q31 180 108 180q48 -34 48 -78q-108 -144 -108 -246q-14 0 -18 -30h-18q-9 0 -18 18z" />
<glyph unicode="(" horiz-adv-x="758" d="M271 530q0 26 8 60q-8 72 -8 119q0 261 117 673q0 170 94 170q31 9 55 9q101 -46 101 -128q0 -71 -93 -136q-71 -123 -71 -213v-9q0 -8 8 -8q-37 -42 -55 -247q-7 0 -7 -17q0 -41 -8 -196q6 -75 23 -94q0 -434 63 -503q0 -16 125 -196q0 -15 31 -76q-15 -39 -31 -43h-8 q-185 86 -235 145q-70 149 -70 187h-8q0 9 8 26q-6 91 -23 111v34q0 45 7 76z" />
<glyph unicode=")" horiz-adv-x="758" d="M19 1340q17 80 66 119q54 0 54 16q90 -11 90 -56q-12 -26 -12 -48v-15q34 -147 144 -454q30 -106 54 -486q0 -143 -78 -486q-13 -1 -24 -112q6 -15 6 -24q-35 -98 -84 -143q-63 0 -90 80v71q0 59 78 160q54 113 78 334v48q0 18 -6 32q6 14 6 32q-3 215 -18 215l6 40 q-16 217 -162 509q-52 0 -102 144q0 8 -6 24z" />
<glyph unicode="*" horiz-adv-x="1024" d="M262 1283v3q0 26 50 47q52 -4 96 -14q13 11 13 17q-17 37 -86 83v20q0 24 55 40q48 0 72 -70h10v54q0 23 -10 63q0 16 60 30q29 0 50 -50q-32 -31 -32 -60v-13q8 0 123 43q42 11 68 40l23 -3l9 3q26 0 32 -37q0 -18 -164 -76q-77 -35 -77 -60q9 -1 9 -7q77 3 177 17 q9 -8 9 -14q0 -20 -173 -50q-18 -6 -18 -9v-10q74 -71 114 -120q0 -10 59 -97q-4 -6 -4 -10h-9q-32 0 -105 90q-41 40 -41 47h-18q-5 -18 -5 -20q0 -7 5 -7l-10 -87l14 -20v-20q0 -23 -27 -23q-41 16 -41 40q0 10 4 23q-4 37 -4 67q0 10 4 23l-13 100h-9q-83 -63 -128 -113 q-23 -1 -23 -10q-50 19 -50 37q0 38 59 60l5 6v10l-32 -3q-41 28 -41 40z" />
<glyph unicode="+" d="M170 686v49q33 64 61 64h101q141 18 141 42v28q0 38 -74 127l7 36q-13 7 -20 7v14q32 120 101 120q87 -32 87 -99v-134q0 -78 21 -78q219 43 310 43q13 -29 13 -43q-23 -70 -108 -70q-7 -16 -182 -43q0 -14 -33 -14v-49l60 -318q-11 -85 -60 -85q-75 34 -75 85q7 28 7 49 l-7 14l7 14q0 80 -47 248q-82 -4 -222 -99q-88 40 -88 92z" />
<glyph unicode="," horiz-adv-x="557" d="M114 -250q0 16 48 144q0 6 -6 6q72 130 72 186q0 47 78 108q0 20 72 48q37 0 72 -72v-12q0 -48 -84 -102q0 -36 -90 -108q-61 -85 -138 -216h-12q-12 0 -12 12v6z" />
<glyph unicode="-" horiz-adv-x="670" d="M35 472q0 78 102 78h102q6 0 6 6l12 -6h78q85 0 156 24l12 -6h24l18 12q43 -6 48 -6l12 6q20 0 48 -48q0 -66 -216 -66q-176 0 -306 -84h-6q-79 0 -90 90z" />
<glyph unicode="." horiz-adv-x="557" d="M185 157q0 39 84 84q102 -15 102 -90q0 -55 -96 -102q-90 37 -90 108z" />
<glyph unicode="/" horiz-adv-x="569" d="M-10 93q27 137 95 206q159 344 256 758q60 208 73 214v88q40 74 117 74q60 0 88 -103v-7q0 -78 -95 -185q-98 -257 -154 -478q-58 -112 -87 -251q-125 -195 -125 -331q-14 -81 -80 -81h-8q-45 9 -80 96z" />
<glyph unicode="0" d="M159 563q0 81 66 426v30q23 35 72 138q33 78 90 96q12 0 12 30h48q6 0 6 6q60 0 126 -114q21 0 72 -126q1 -45 156 -330l-6 -12v-96q0 -6 6 -6l-6 -12v-12q17 -78 24 -78q-6 -10 -12 -54l6 -42q-31 -119 -96 -216q0 -66 -144 -120h-30q-61 0 -120 18q-26 0 -54 -12 q-57 16 -78 54q-24 0 -36 84q-47 26 -66 72v6q0 6 6 6q-12 17 -36 138l6 30zM261 521q11 -133 72 -210q0 -25 60 -90q25 -13 138 -18q37 0 60 36q59 22 84 108q0 5 12 48v6l-6 12q9 0 18 18v30q0 20 12 84q-54 211 -54 234q-70 111 -102 210q-58 126 -132 126 q-54 -24 -54 -54q-96 -290 -96 -438q-10 0 -12 -102z" />
<glyph unicode="1" d="M149 69v38q0 106 103 106q5 0 97 -38h27q59 0 111 23v7q0 28 6 69q-13 38 -20 38q7 14 7 22q0 31 7 137l-28 205q14 33 14 122v106q0 27 -7 68q7 15 7 23q-23 121 -42 121q-8 0 -41 -121l-103 -68q-37 0 -97 91v30q0 39 111 160q0 63 82 106q25 25 55 106q26 23 49 23h27 q48 0 69 -91q14 0 14 -8l-28 -235q6 -30 14 -30q0 -9 -7 -23q7 -107 7 -183q0 -65 -7 -136q23 -198 35 -243q-7 -40 -7 -46q13 -91 13 -144v-53q0 -28 255 -84h49q9 0 34 -38v-15q-13 -35 -103 -76q-6 0 -55 8l-35 -15q-50 22 -131 22l-48 -7l-14 7q-129 -30 -172 -30h-48 q-55 -38 -131 -38l-28 15q0 -7 -7 -7q-34 49 -34 76z" />
<glyph unicode="2" d="M-2 1106v28q29 49 54 56q0 33 183 175q62 26 150 49l40 -7l14 7q97 -20 142 -91q82 -143 82 -147q-37 -379 -115 -532q-59 -176 -170 -357v-28q7 0 20 -7l190 28l14 -7h13l41 7q132 -84 163 -84q122 -25 122 -56v-7q-14 -23 -14 -42q14 -2 14 -14q-18 -56 -81 -56h-28 q-143 77 -190 77q-101 18 -101 28q-312 -33 -312 -119q-26 0 -75 -28q-83 56 -95 56v63q0 77 109 119q35 30 61 91q36 0 74 91q12 0 55 147q53 83 135 343q10 0 14 63q0 7 -7 21l14 119q-14 0 -14 14l20 28q0 10 -40 42q0 53 -61 70q-204 -37 -204 -126q0 -62 -81 -112 l-14 7l-34 -7q-88 29 -88 98z" />
<glyph unicode="3" d="M-8 1209q0 73 149 124q0 30 212 103h8q96 -2 133 -27q39 20 63 20h39q164 -82 164 -261q-7 -12 -7 -27l7 -28q-15 -23 -15 -41v-69q-73 -130 -118 -151l149 -103q79 -34 94 -76q55 -53 55 -261q8 0 8 -34q0 -136 -78 -227q-66 -88 -173 -117q-23 -16 -23 -20l-40 6 q-15 -2 -15 -13l-40 7q-18 -16 -117 -21l-32 7l-39 -7q-177 0 -227 103v14q0 96 94 96h8q29 0 125 -55l149 -14q72 38 181 69q84 63 94 110q0 125 -47 165l7 14q-77 171 -164 171q-13 28 -55 28h-47q-116 -14 -204 -34q-83 0 -125 55v27q0 82 133 117h8q15 -7 23 -7l204 89 q63 90 63 213l-8 28q8 13 8 20q0 35 -149 55v7l-79 -7l-54 7q-102 -28 -102 -96q0 -50 -95 -62q-117 23 -117 62z" />
<glyph unicode="4" d="M16 788q20 51 54 69q42 98 42 140l-6 35q12 25 12 55l-6 14q12 23 12 35l-6 28l6 14l-6 14q12 45 12 63q-22 0 -30 83l30 84h30q6 0 6 7q52 -19 84 -105v-7q-20 0 -66 -446q0 -55 72 -55q3 0 150 -21h36q12 0 12 14q-12 282 -42 355q6 14 6 21q-18 34 -18 91v21 q34 62 48 62q24 -7 42 -7l12 7q13 0 54 -62q-6 -14 -6 -21l6 -35q-18 -7 -18 -42q0 -96 18 -411q15 -14 24 -14q111 28 138 28q210 0 210 -77v-14q0 -39 -30 -49l-132 14q-54 -7 -78 -21q-42 14 -72 14h-36q6 -68 66 -376l-6 -42q12 -23 12 -42q0 -7 -6 -21l30 -125 q-18 -63 -84 -63q-24 32 -42 112q12 27 12 48q-12 26 -12 63q0 9 6 70q-17 23 -72 334q0 45 -156 56h-12q-6 0 -6 -7q-12 7 -18 7q-24 0 -108 7q-42 0 -42 -14q-56 7 -102 35q-24 64 -24 77z" />
<glyph unicode="5" d="M-5 669q0 7 22 66v17q0 29 -11 74q54 57 54 66q-43 253 -65 306v132q24 0 87 49q90 -16 195 -16l530 66q83 0 141 -74v-42q0 -61 -162 -99q-107 33 -130 33q-236 -41 -390 -58q-33 -42 -33 -82v-33q0 -21 22 -75q-11 -32 -11 -57q21 -9 33 -9q152 58 162 58 q184 0 271 -66q131 -82 173 -165l-11 -17v-24q3 -42 22 -42q-22 -70 -22 -91h11q-22 -195 -119 -404q0 -105 -520 -182q-61 13 -108 91v8q0 93 54 116h22l75 -42q304 31 304 91q30 32 65 99h10l-10 33l32 199q-22 0 -32 91q-106 66 -120 66q-149 -31 -205 -108 q-197 -49 -217 -49l-108 74h-11z" />
<glyph unicode="6" d="M9 243q37 384 103 471h-12q164 431 308 585q0 109 69 130h11q194 0 194 -65q11 0 11 -8v-73q-321 -255 -387 -488l-114 -365q8 -98 22 -98q107 -114 137 -114q88 -32 114 -32h23q183 78 183 105q22 30 22 65v17q0 52 -251 97h-34l-91 90v16q0 35 23 65l114 -8h34 q26 0 46 8q71 -42 194 -65q0 -17 137 -138q68 -118 68 -155q-114 -133 -160 -170q0 -63 -353 -106q-208 28 -400 154l12 33q-23 27 -23 49z" />
<glyph unicode="7" d="M18 1179q0 85 98 118l57 -8h32l301 81l17 -7h16q112 44 163 44q2 15 16 15q138 -16 138 -66q16 -3 16 -15l-8 -15q19 -96 25 -96q-43 -120 -114 -243l-73 -236q8 -14 8 -22h130q60 0 65 -22q0 -71 -212 -96q-42 0 -122 -398q-16 -9 -57 -177q-41 -29 -48 -29 q-63 0 -90 66q15 74 90 295l57 184l-17 8q-62 0 -268 -118l-41 -8q-106 6 -106 89v22q0 96 269 96q195 61 195 74l122 420v36q0 16 -73 37q-230 0 -472 -110h-16q-98 15 -98 81z" />
<glyph unicode="8" d="M32 1051q11 14 11 22l-11 38l11 38q-11 14 -11 22q20 0 68 68q69 18 125 76q294 121 421 121h23q102 -41 102 -53v-30q0 -70 -102 -121v-15q111 -74 125 -151q-23 -53 -23 -91v-98q0 -25 137 -182q11 -12 11 -37v-121q0 -48 -11 -114l11 -45q0 -22 -34 -113v-8 q0 -8 11 -8q-106 -123 -159 -204q-60 -30 -125 -30q-47 0 -91 8l-193 -23h-23q-137 25 -137 98q-45 109 -45 129l11 30l-22 38q45 206 113 249l239 189q16 0 34 23v30q-67 43 -318 121q-129 117 -148 144zM294 1111q0 -45 250 -128q22 0 22 22q-48 234 -102 234 q-85 0 -170 -120v-8zM328 204q28 -45 91 -45h79q165 0 216 204q0 17 -11 30l23 30q0 13 -12 91l12 53q-32 74 -57 75h-12q-329 -191 -329 -385v-53z" />
<glyph unicode="9" d="M17 879l13 63q-13 50 -13 72l26 36l-13 46q25 2 64 90l421 235h13q242 -61 242 -99q64 -59 64 -91v-54q-86 -64 -140 -325v-73l12 -36q-12 -13 -12 -54q0 -10 12 -27l-12 -54q0 -42 12 -208q-25 -63 -25 -109l13 -90l-13 -18l13 -54v-19q13 0 38 -9q-18 -108 -153 -108 h-39q-140 51 -140 172q64 86 89 325q-25 134 -25 244l-26 9q-122 -9 -178 -36q-205 17 -205 108q-38 46 -38 64zM272 933q13 -27 77 -27q128 108 128 190q-58 36 -115 36q-90 -84 -90 -163v-36z" />
<glyph unicode=":" horiz-adv-x="557" d="M191 734v18q11 102 60 102q39 -12 54 -12h12l18 -78q0 -34 -60 -66h-6q-78 18 -78 36zM203 284q0 126 90 126q90 -16 90 -120q-41 -54 -96 -54q-55 16 -84 48z" />
<glyph unicode=";" horiz-adv-x="557" d="M71 -242q0 160 100 400q0 26 30 138l-7 40q45 85 84 85h8q107 -16 107 -79q0 -85 -61 -85l-184 -473l-54 -46h-15q0 20 -8 20zM168 687v51q30 130 150 130q97 -36 97 -147q0 -76 -150 -95z" />
<glyph unicode="&#x3c;" d="M180 585v6q0 53 150 174q32 29 78 102q36 13 144 168q44 72 54 72l-6 12q0 66 60 96q78 0 114 -60v-42q0 -36 -90 -96q-108 -102 -168 -186q-90 -78 -90 -126q-26 0 -42 -90v-12q0 -12 192 -78l66 -54q192 -106 192 -174q6 0 12 -18q0 -6 -6 -6l6 -30q0 -24 -24 -36h-24 q0 26 -192 162q-105 92 -360 132q-66 46 -66 84z" />
<glyph unicode="=" d="M194 867q15 90 90 90h6q74 -24 90 -24h24q29 0 234 42q70 0 234 -48l6 -42q0 -42 -102 -42q-30 12 -30 18l-60 -6h-24q-16 0 -36 12q-270 -50 -336 -84q-96 0 -96 84zM200 495v18q19 78 72 78q24 0 24 6q54 -18 66 -30h48q160 0 240 54q32 6 60 6q36 -26 36 -84 q-4 -22 -54 -60l-42 6q-121 -12 -252 -42q-33 6 -48 6q-5 -36 -36 -36q-81 0 -114 78z" />
<glyph unicode="&#x3e;" d="M227 1125v24q22 84 60 84q1 12 42 18q68 -32 78 -66q0 -40 132 -96q41 0 162 -96q22 -18 90 -24q46 -32 60 -120q-13 -7 -30 -66l-264 -270q0 -14 -78 -144q-46 -162 -120 -162q-36 0 -36 36q0 58 42 102q84 174 192 324q67 60 96 120v54q-20 76 -174 150 q-156 72 -204 78q0 6 -48 54z" />
<glyph unicode="?" horiz-adv-x="748" d="M6 1030q0 77 118 134q86 202 163 202q131 34 140 34q148 -52 243 -182q30 -62 30 -87v-14q0 -41 -52 -188h8q0 -90 -141 -149q-12 0 -29 -80q-67 -56 -67 -149q18 0 30 -114h7q0 -114 -96 -114q-51 44 -51 87l7 34q-13 12 -29 168q7 13 7 20l-52 74v41q0 46 96 87 q0 43 96 54q82 40 118 182l15 7q-18 121 -59 121q-67 47 -111 47q-162 -115 -162 -148q-22 -49 -22 -61q0 -6 7 -6q-24 -81 -103 -81l-30 -7q0 8 -66 40zM287 80v14q0 64 81 80q88 -13 88 -54q-13 -114 -59 -114q-110 17 -110 74z" />
<glyph unicode="@" horiz-adv-x="2019" d="M13 152q0 52 91 373q0 150 157 302q41 107 300 342l170 151q213 80 365 80h92q235 0 496 -282q106 0 248 -322l13 -100v-30q-29 -302 -91 -302q-40 0 -40 -20q26 -10 40 -10q-96 -262 -196 -262q-74 -91 -353 -91h-39q-428 0 -444 171h-13q-146 -70 -222 -70h-91 q-46 0 -196 80h-39q0 -251 170 -251q457 -48 457 -272q-59 -35 -131 -50q-155 93 -431 141q-261 94 -261 211zM248 203h26v10h-26v-10zM405 645h52q363 242 457 242h26q274 0 274 -272q-118 -181 -118 -292q0 -133 157 -161q265 38 353 141q117 150 117 282v161 q0 41 -183 262q-166 95 -261 201q-130 30 -130 40q-285 -86 -287 -101q-402 -260 -444 -472q-13 0 -13 -10v-21zM561 364q4 -20 26 -20h13q157 26 157 140v21q0 20 -39 20q-157 -38 -157 -121v-40z" />
<glyph unicode="A" horiz-adv-x="1540" d="M156 74v22q71 130 149 228q0 9 50 133q0 26 50 140v7l-8 15q0 75 74 162q43 0 58 66v22l-8 51q10 0 83 133q40 24 133 235q33 0 33 118q58 44 108 44h16q64 0 75 -88q11 0 25 -44q-8 -40 -8 -67q21 0 49 -154q12 -10 67 -206q20 -16 50 -81l-9 -37q13 -24 25 -73l-8 -15 v-15l17 -22q-17 -24 -17 -44q17 -18 17 -29l-17 -30q23 -50 41 -162q48 0 75 -162q12 0 25 -36q0 -131 -91 -140q-100 0 -141 169l8 29l-50 111l8 15q0 272 -207 272q-72 -20 -166 -96q-106 -30 -158 -132q-49 -128 -116 -265q0 -133 -83 -133q0 -29 -49 -29h-34 q-66 49 -66 88zM687 795q0 -17 75 -22l182 66q9 13 9 30q-39 0 -83 176l8 37q-11 37 -25 37h-17q-74 -126 -74 -206q-75 -93 -75 -103v-15z" />
<glyph unicode="B" horiz-adv-x="1219" d="M172 154l24 47q-8 11 -8 26q0 7 8 7q-8 10 -16 73q23 7 23 40v7l-7 34h7l-7 13q31 251 55 367q7 0 7 7v6q-17 16 -23 87l16 7l-8 47v126l-8 41l16 26q0 78 -40 120l8 14q0 24 -16 93q83 87 126 87q156 0 346 -67h24l15 7q61 0 118 -107q0 -20 16 -67h-8q55 -113 55 -127 q0 -66 -63 -146v-20q26 0 63 -47q18 0 63 -34q63 0 102 -180l-8 -40v-7q0 -18 16 -40q0 -81 -71 -173q-35 -154 -110 -154l-267 -147q-94 -33 -212 -46q-13 6 -40 6q-21 -33 -70 -33q-83 25 -118 87v6l8 14q-16 22 -16 40zM337 361q43 -101 87 -154q0 -16 15 -33 q195 60 307 147q27 21 47 80q42 0 71 80q0 7 -8 20q16 57 31 187q-101 100 -204 100l-16 -7q-15 7 -23 7l-55 -7q-26 14 -40 14l-157 -67q0 -17 -16 -33l8 -14q-13 -18 -23 -93q7 -12 7 -27q0 -18 -23 -60l8 -60q-16 -43 -16 -60v-20zM392 975q8 -20 16 -20q118 20 181 60 q62 0 125 107v60q0 26 -118 47h-7q-40 0 -95 -14q0 14 -15 14q-26 0 -71 -40q-16 0 -16 -67q5 -60 16 -60q-6 -15 -16 -87z" />
<glyph unicode="C" horiz-adv-x="1399" d="M9 777q8 12 8 37l-8 15q64 100 64 133q0 17 -8 30q23 155 120 155q70 53 137 171q51 59 144 59q92 52 193 52q110 -52 192 -52q7 0 64 8q55 -8 88 -8l56 8q0 -11 25 -23q42 8 48 8q85 -30 128 -104l24 -30v-22q-14 0 -40 -52v-15h16v-14q-126 -60 -152 -60q-55 12 -97 37 q-14 -7 -32 -7q-50 96 -192 96q0 15 -16 15q-28 -7 -32 -7q-58 22 -97 22l-16 -7l-16 7q-102 0 -176 -67q-30 0 -96 -74q-67 -134 -112 -192q0 -64 -25 -104l8 -30l-16 -29l8 -45q-8 -49 -8 -96v-8q92 -164 217 -318q147 -89 241 -89q0 5 24 22l16 -7q105 35 128 59l16 -7 h16q83 61 160 177h24q50 0 81 -52q-40 -141 -121 -222q-76 -89 -168 -104q0 -20 -104 -37l-40 8l-32 -15q-221 32 -249 44q-54 50 -201 163q-86 153 -168 267q-8 63 -8 97q0 37 16 37q-22 41 -32 170z" />
<glyph unicode="D" horiz-adv-x="1518" d="M-1 1332q35 97 104 97q90 -6 176 -104q0 14 63 28q0 -28 120 -49v-7l72 7q81 -10 104 -28h88q8 0 8 7q42 -12 72 -34h40q0 -31 79 -56l32 14q0 -11 32 -28h16q8 0 8 7q97 -46 104 -90q0 -37 40 -173q-16 -23 -16 -42q34 0 40 -173l-8 -28l8 -14q-22 -36 -56 -153 q-22 0 -48 -90q-37 -48 -48 -48h-40q0 -27 -48 -42q-156 -166 -167 -166q-20 0 -344 -139q-31 0 -88 -14l-40 7q-154 -10 -159 -14q-112 31 -112 83q-24 0 -24 35v21q14 57 32 76v42q24 152 24 166h-8q8 11 16 90q-8 50 -8 56l16 69q-6 42 -16 42q16 35 16 55q0 11 -16 63 l8 27l-32 215l8 35q-6 76 -16 76q8 14 8 21q-24 120 -40 153zM175 1131q0 -30 16 -56l-8 -48l8 -35q0 -7 -8 -21q8 -111 24 -132l-8 -41q24 -7 24 -42v-7q0 -28 -8 -55q16 -76 16 -111q-27 0 -32 -90v-21q2 -49 16 -49q-16 -28 -16 -48q20 -181 88 -181q10 -7 55 -7h16 q132 0 296 111q0 47 136 97q111 129 111 132q51 39 88 174q0 7 -8 20q21 39 40 125v14q0 16 -8 28q8 12 8 28q0 92 -135 145q0 21 -16 21h-16q-8 0 -8 -7l-136 21l-16 -7q-29 14 -64 14h-16q-12 0 -24 -21q-42 0 -112 49q-28 0 -48 21q-26 -14 -48 -14h-24q-127 29 -127 111 q8 0 8 7h-24q-40 -17 -40 -125z" />
<glyph unicode="E" horiz-adv-x="1151" d="M8 1299q0 99 131 140h8l23 -14l38 7q0 -28 100 -35v7q28 -14 62 -14q107 7 107 21q8 0 8 -7l39 7q129 -14 146 -14l38 7q26 -14 47 -14q35 0 161 28l39 -7l15 7q85 -63 100 -63q0 -85 -108 -147q-137 33 -307 49q-380 -19 -393 -62q-15 -23 -15 -42v-21q-9 0 -23 -7 l7 -35q-15 -117 -15 -133q0 -140 46 -140q8 0 23 -7q8 0 23 7q42 -7 62 -7q8 0 23 7l46 -7q28 0 69 28h23q124 0 124 -91q7 0 7 -7q-66 -98 -108 -104l-107 35q-163 0 -231 -133v-49q0 -28 38 -133l-7 -42q17 -4 46 -104q13 -20 184 -49q24 7 24 14l15 -7h8q125 0 246 28 l46 -21h31q40 0 69 21l31 -7l31 14q91 0 146 -77v-14q-38 -105 -123 -105h-8q-25 21 -131 21v-7l-15 7h-23q-55 -14 -62 -14h-7q-34 0 -62 14q-145 -14 -192 -14l-108 21q-99 -7 -177 -21v7q-8 0 -8 -7q-101 0 -154 119q-15 0 -15 14q23 0 23 28l-8 35q14 2 39 55q0 8 -8 21 l8 35l-8 49l8 14q-16 56 -23 182q15 23 15 42q0 5 -54 125q15 0 54 98q-8 104 -8 140q0 32 8 161q0 21 -62 125q0 19 -15 42z" />
<glyph unicode="F" horiz-adv-x="1079" d="M0 1225v87q53 117 117 117q45 7 51 7q129 -51 159 -51h9q129 36 142 36h9q50 0 159 -14l17 7l50 -7q3 14 17 14h109q118 0 118 -123h8q-62 -124 -159 -124q-57 51 -160 51h-92q-42 0 -42 14q-200 -29 -227 -58q-58 0 -58 -51q0 -42 8 -182h50q61 -37 101 -37h34 q65 26 218 44h25q92 -26 92 -139l-100 -58h-193q-50 0 -185 -73q0 -29 -17 -87q0 -6 9 -44q-9 -38 -9 -44q9 -116 25 -116l-8 -37v-7q0 -7 8 -7q0 -8 -8 -8l8 -65l-8 -73q0 -7 25 -88v-7q-25 -102 -84 -102h-33q-79 0 -101 117l17 51q0 7 -9 22l9 43v22q0 17 -9 29 q6 13 17 102q-17 24 -17 44q25 147 25 197l-8 73l8 29q-16 139 -41 226q8 29 8 51q-25 51 -34 51q7 29 17 29l-17 29l9 44z" />
<glyph unicode="G" horiz-adv-x="1479" d="M-12 437q25 90 25 115q0 26 -8 38q10 143 25 185l-8 46q68 64 101 130h17v39q0 29 93 146q104 176 220 176q87 0 304 108q0 6 85 23l51 -8h17l50 8q45 -20 195 -38q19 -22 42 -93q0 -97 -84 -130h-34q-30 0 -127 46q-206 15 -228 15q-144 -37 -144 -61 q-259 -166 -262 -254q-34 0 -51 -115q-32 -89 -59 -130q0 -29 -26 -116q0 -7 9 -7l-9 -16v-30l9 -46q-9 -15 -9 -24q122 -192 246 -192q34 -6 34 -15l42 8h25q38 0 68 -31q279 77 279 138q73 64 93 131q17 0 17 15l-9 39q9 50 9 100q-9 23 -51 23q0 -16 -76 -23q-15 7 -34 7 l-34 -15q-135 0 -135 138q49 48 228 69l43 -7q141 38 160 38q118 0 144 -277l-17 -76l9 -16l-51 -107v-16q0 -17 8 -30q-25 -77 -177 -208l-237 -107l-135 -31l-34 8q-45 -8 -85 -8q-37 20 -143 38q-112 32 -170 108q-19 0 -59 61q-62 23 -152 231z" />
<glyph unicode="H" horiz-adv-x="1579" d="M-30 1292v8q40 106 107 106q0 7 8 7h54q106 -25 106 -128q-35 -106 -35 -121q0 -8 9 -8l-9 -38v-181q0 -8 115 -46l44 8q36 -8 63 -8q9 0 26 8l45 -8q368 53 497 84q-9 114 -27 189v22q2 38 18 38q-27 35 -36 129q40 83 98 83q99 0 160 -113q-36 -28 -54 -197l9 -30 l-17 -182q26 -30 35 -91q-9 -39 -9 -45l18 -76q-9 -14 -9 -22l18 -68q-9 -41 -9 -68l9 -16q-9 -13 -9 -30v-15q27 -28 27 -53q-9 -66 -9 -76q33 0 53 -242q-21 -75 -80 -75h-9q-124 0 -124 121l9 15q-18 28 -18 60v16l9 75h-9q9 15 9 23q-18 119 -18 159v68q0 20 -18 45 q7 83 18 83q0 61 -257 61q-542 -49 -542 -76v-15q27 -86 36 -280q18 -81 35 -83l-9 -38v-53q0 -7 9 -7q-17 -25 -17 -46q15 -16 26 -75q-34 -91 -142 -91q-80 39 -80 212q0 19 -17 38q17 15 35 105q-18 39 -44 235l9 38q-6 143 -18 143l9 16v15q-27 80 -27 128l9 53 q-18 0 -18 15q18 49 18 68l-9 46q9 29 9 60v8q-41 35 -80 113z" />
<glyph unicode="I" horiz-adv-x="657" d="M109 1352q17 0 68 73l68 25q192 -58 192 -147q-57 -116 -57 -238q0 -33 23 -98q-11 -56 -11 -90l45 -172q-23 -38 -23 -82l12 -41q-12 -32 -12 -66q51 -129 91 -188l11 -33q-34 0 -34 -74q11 -24 23 -24q0 -205 -147 -205t-147 147l-23 74l23 33q0 9 -12 24q12 61 34 107 q-45 59 -45 90l11 16q-22 33 -22 58q34 43 34 98q-23 87 -23 115v147q0 8 -11 8l11 17q-34 131 -34 262l12 16q-57 123 -57 148z" />
<glyph unicode="J" horiz-adv-x="657" d="M-6 305q0 73 73 97h12l17 -15q12 0 22 7q43 0 68 -163q11 0 34 -30h34q5 0 5 7q11 -7 17 -7q91 43 91 112q37 0 56 208q6 0 6 22q-6 15 -6 23q17 0 17 119v52q11 30 17 30q-11 32 -17 134q6 14 6 22l-23 134h6q-6 14 -6 22l6 30l-11 30q5 40 5 67q-22 85 -28 134 q29 89 79 89h23q45 -33 45 -134l-6 -15v-74q28 0 45 -283q0 -8 6 -8l-17 -104v-15q0 -16 6 -29l-6 -15q6 -41 6 -67q-40 -198 -40 -231q0 -17 6 -30q-6 -40 -6 -67v-82q0 -66 -107 -148q0 -64 -187 -127h-5q-153 37 -153 104l-28 8v37q-57 86 -62 156z" />
<glyph unicode="K" horiz-adv-x="1382" d="M52 911q0 13 13 133h-13l13 16q0 55 -13 233l8 73q-17 0 -17 7q0 16 96 69h111q15 0 97 -77q-22 -79 -36 -222q-24 -65 -37 -166q50 -59 50 -124h-13q13 -16 13 -25h24q57 5 247 332q72 78 111 158q90 74 148 74h61q34 0 74 -91q0 -61 -197 -257q0 -29 -86 -91 q-198 -252 -198 -307v-42q129 -125 210 -174q128 -90 160 -133q217 -220 259 -240l74 -100q95 -25 111 -191v-16l-86 -17q-48 6 -235 124l-147 108q0 18 -111 125q0 74 -136 132q0 37 -160 142h-25q-25 -58 -25 -100q0 -9 13 -25q-37 -38 -37 -50q24 -83 37 -83 q-53 -74 -99 -91h-61q-161 0 -161 108q0 37 -12 50l25 49q-13 71 -13 117v33q0 18 13 33q-21 17 -37 141q0 23 37 141q0 124 -50 224z" />
<glyph unicode="L" horiz-adv-x="1128" d="M-1 1300v23q0 44 125 106q135 -34 135 -106l19 -16q-48 -174 -48 -190q0 -7 9 -7l-9 -38v-38q0 -42 -10 -106q10 -15 10 -23q-19 -76 -19 -137v-30q3 -54 19 -54q-10 -14 -10 -22l10 -69q-19 -28 -19 -61v-68q45 -152 96 -152q-20 -25 -20 -38q36 -53 58 -53 q264 0 519 76q95 -29 135 -76q48 0 48 -53q0 -58 -96 -69v8q-39 -6 -39 -15q-65 23 -105 23q-32 0 -106 -31l-19 8q-328 0 -443 -76q-67 -5 -67 -23q-98 0 -163 84q19 111 38 136l-10 92q29 38 29 53q0 17 -9 30l19 205q-10 15 -10 23l10 30q0 8 -10 23l10 38q0 25 -19 137 l19 46l-10 68q0 27 10 68q0 132 -77 274zM851 174v18q12 0 12 6q12 -6 18 -6v-18h-30z" />
<glyph unicode="M" horiz-adv-x="1798" d="M-6 1029q24 73 71 124l-30 39v70q73 101 162 101q202 -54 202 -179q180 -85 203 -85q54 -45 152 -179l20 -8h10q47 40 121 163q48 0 112 234q-20 0 -20 15v16q73 116 111 116q18 8 41 8h50q101 -48 101 -109q-22 -194 -50 -194v-78q0 -17 -10 -31q48 -311 91 -311 q-10 -14 -10 -31q20 0 71 -218v-15l-11 -39q41 -41 51 -132q-10 -14 -10 -31q19 -107 111 -187l51 -62q0 -79 -91 -140h-51q-132 0 -152 163v8q10 15 10 23l-141 490v23l20 24q-91 138 -91 326h-31q-40 -120 -40 -140l10 -15q-10 -14 -10 -31l30 -16q0 -93 -142 -93v-8 q-110 0 -162 62q-172 78 -172 187q-39 49 -263 140q0 23 -41 23v-16q-42 -147 -60 -147q0 -16 40 -210q-30 -68 -30 -202q30 -311 71 -311q0 -140 -102 -140h-50q-79 0 -101 109v23l30 31v39q0 8 -10 8q20 13 40 179q0 137 -81 279v32q0 71 21 194h-11l11 15q-26 94 -41 94z " />
<glyph unicode="N" horiz-adv-x="1554" d="M-10 122q32 43 54 114q-11 14 -11 33q22 0 22 24q0 16 -11 16l11 57v65q43 35 43 66v113q-27 20 -76 131q44 58 44 73q0 9 -11 24q11 44 11 74v24l-33 171l11 57l-11 33l11 40q-32 76 -32 114q43 106 140 106h21q140 0 173 -195q31 -12 76 -131q16 -2 118 -162 q89 -59 270 -269q103 -102 227 -293h21q0 16 11 16l-11 17q41 175 54 488q-10 42 -10 98v32q0 18 -11 33q32 47 97 333q39 17 86 17q98 0 119 -114v-49q0 -18 -86 -261q-11 -70 -11 -179v-81q0 -29 11 -73q-33 -48 -33 -187h11q0 -9 -11 -9q13 -165 33 -187l-11 -49 q0 -40 54 -154q21 -74 21 -82q-98 -73 -183 -73q-117 0 -140 179q-83 79 -162 187h-22v49l-129 163q-19 3 -97 114q-138 153 -238 228q-26 61 -108 138h-32v-32l11 -49q-22 -27 -22 -49v-8q0 -95 43 -179v-82q0 -44 -11 -114q11 -14 11 -32l-32 -98v-16q0 -65 -11 -171 q19 -26 32 -90q-26 -73 -86 -73h-22q-183 20 -183 114z" />
<glyph unicode="O" horiz-adv-x="1614" d="M-15 722q0 49 72 243l-9 16q53 144 134 202q83 109 378 194q35 0 305 65q63 8 107 8q0 -8 90 -97q7 -33 63 -89q0 -87 135 -186q134 -208 134 -324q32 0 45 -169q0 -17 -143 -292q-71 -81 -126 -81q-223 -194 -422 -194q0 -21 -153 -32q-278 50 -278 154 q-269 239 -269 275q-63 295 -63 307zM174 568q0 -114 170 -226q162 -162 260 -162q368 0 368 89q26 0 126 121q126 137 126 284q-18 0 -18 24q18 26 18 48v8q0 31 -126 178q-66 194 -161 194h-18v-8q-70 0 -171 89q-112 0 -162 8q-165 -30 -287 -145q0 -14 -54 -81 q-71 -101 -71 -218h8l-8 -17v-48q0 -45 8 -113q-8 -16 -8 -25z" />
<glyph unicode="P" horiz-adv-x="1120" d="M-6 1107q28 147 41 168q45 61 81 61q184 84 350 107v7q145 0 400 -141q91 -125 130 -195q-8 -48 -8 -54q16 -22 16 -40q-38 -113 -163 -208q-187 -121 -342 -121h-98q-117 13 -122 13q-57 -16 -57 -27v-20q3 -47 16 -47q0 -7 -8 -20q22 -269 41 -269l-8 -13 q30 -148 49 -148q16 -2 16 -14v-80q0 -56 -73 -68l-33 -13q-44 7 -73 7h-17l-8 33v20q-12 0 -32 14q0 7 8 20l-8 34q8 82 24 94q0 33 -16 33l8 61q0 24 -8 60q8 42 8 94q0 47 -16 47l8 14q0 91 -41 202l8 26q-8 12 -8 34h8q-73 175 -73 329zM157 1074q16 -2 16 -14v-134 q33 -88 49 -88h25q8 0 8 7q29 -13 244 -20q0 11 163 40q163 84 163 189q0 126 -269 241q-26 -13 -41 -13l-81 7v-7l-16 7q-136 0 -237 -135z" />
<glyph unicode="Q" horiz-adv-x="1614" d="M-10 622q26 259 113 467q0 41 209 212q0 38 114 43q35 38 104 56q37 50 52 50q56 -14 61 -14l53 7q90 -76 270 -149q244 -117 244 -219q34 0 78 -311q-9 0 -9 -7h9q-29 -35 -52 -106l8 -50v-21q0 -88 -78 -262q-9 -28 -9 -49q0 -14 192 -156q0 -18 87 -120q9 -78 35 -113 q-18 -45 -44 -50h-17q-78 62 -209 212q-71 59 -157 113h-9q-172 -134 -487 -134q-80 0 -419 177q-113 140 -113 219q-17 89 -17 149v49q0 7 -9 7zM138 580l18 -36l-9 -42v-14l26 -28v-43q0 -64 96 -113q0 -35 322 -149q305 64 305 107v7q-129 90 -244 113l-9 42q0 14 27 92 v21q121 29 139 29q0 -9 87 -29q61 -146 113 -169q48 0 87 346h9l-9 14q27 129 27 191q0 164 -349 290l-43 -28h-79q-43 -2 -43 -14l-122 21q-39 0 -157 -70q-122 -91 -122 -170q-33 -46 -70 -368z" />
<glyph unicode="R" horiz-adv-x="1283" d="M-14 1308q39 114 124 114l46 7q271 -21 271 -43h55q218 -38 317 -113q101 -31 101 -121q65 -57 70 -128l-8 -36l15 -57q0 -153 -116 -178q0 -19 -201 -56l-8 -15v-7l225 -220q0 -14 31 -50q0 -48 131 -149q154 -141 163 -171v-36q0 -85 -77 -85q-109 51 -109 107 q-119 99 -310 313q-119 213 -294 213q-87 28 -147 28q-7 0 -62 -7v7q-39 0 -39 -106q0 -325 93 -370q0 -34 16 -71q0 -39 -101 -93q-132 16 -132 71q0 38 16 157q-8 248 -31 540q7 13 7 29l-15 35q15 143 15 256zM180 860q19 -31 216 -78q126 0 225 50q171 17 171 78 q7 39 7 78q-62 85 -62 128q-42 17 -124 78q-327 57 -379 57q-31 -32 -31 -50l8 -85q-31 -43 -31 -85q15 -46 15 -64v-43q-15 -50 -15 -57v-7z" />
<glyph unicode="S" horiz-adv-x="1085" d="M-11 268q0 50 114 87h37q82 -40 91 -87q144 -79 273 -114l68 7l38 -7q146 0 204 148q0 3 15 73q0 5 -7 41l7 40l-15 7l8 13v34q-44 154 -53 154q-63 85 -121 114q0 46 -182 67q-8 0 -8 -6q-19 0 -227 87q-136 110 -136 181q0 57 106 175q0 12 53 33q0 43 303 128h15 l68 -7q8 0 8 7l37 -7h8q40 0 129 7q62 -35 75 -60q1 -30 31 -68v-13q-28 -47 -53 -47l-31 7l-15 -7l-30 7l-53 -7q-39 20 -76 20h-7q-8 0 -8 -7l-15 7q-34 0 -121 -13q-13 6 -38 6q-9 -20 -151 -80l-61 -81q0 -77 136 -94q6 0 182 -40v7q165 -54 333 -222q38 -44 38 -114 q15 -2 15 -13v-81q30 0 38 -242q-19 0 -38 -74q-93 -116 -159 -167q-53 -81 -136 -81h-30q-66 0 -485 141q-174 0 -174 141z" />
<glyph unicode="T" horiz-adv-x="1350" d="M-12 1338q40 42 40 63q29 0 72 7q26 -14 48 -14h8l16 7l16 -21q112 7 153 14q14 -7 32 -7q182 16 256 35q14 -7 32 -7q40 0 40 14l56 -7h56l48 7q41 -14 64 -14q25 0 65 14q272 0 272 -126v-7q-28 -48 -64 -48l-56 7q-172 -7 -257 -7q-51 14 -64 14q-96 0 -96 -56 q-27 0 -40 -133q16 -193 32 -230l-8 -28q24 -53 32 -132q-8 -14 -8 -21q6 -28 16 -28l-8 -84v-105q0 -30 16 -55l-8 -42q0 -21 16 -56l-24 -140q16 -22 16 -34q0 -86 -96 -133q-88 28 -88 140h-8q32 66 32 90q0 96 -8 133q8 78 8 181v98q0 23 -24 77l8 34q-24 0 -24 105 l8 49q-16 23 -16 42v118q0 125 -80 203q-149 -3 -345 -63q-14 7 -32 7l-40 -7q-64 63 -64 146z" />
<glyph unicode="U" horiz-adv-x="1501" d="M-21 1346q59 98 136 98q155 -24 155 -98q19 0 19 -46q-33 0 -48 -210q60 -140 77 -151q-9 -46 -19 -59q10 -36 10 -60q0 -16 -10 -52q26 -35 48 -210l-9 -33l19 -26q-10 -90 -10 -125q20 -22 20 -40v-45q74 -132 184 -132q233 0 320 59q98 22 194 105q67 64 67 132 q0 25 49 184q-20 26 -20 39q20 26 20 46q-10 48 -20 59l10 33q0 6 -10 52l10 14l-10 26l10 59q0 5 -10 39l10 40q-33 0 -58 315l-19 46q17 44 48 59q155 0 184 -204l-9 -39q0 -39 48 -302q0 -7 -10 -7l10 -59q0 -47 -19 -295q9 -43 9 -86q-29 -116 -155 -262 q-59 -56 -242 -132q-57 -41 -330 -85h-19q-242 31 -291 72q-118 82 -155 250v6q20 55 20 119q0 102 -59 262q20 64 20 72q-10 20 -20 20l10 33v26q-29 202 -107 368q-38 0 -48 125z" />
<glyph unicode="V" horiz-adv-x="1456" d="M-24 1310q0 147 113 147h34q113 0 113 -186q41 0 164 -325q0 -31 87 -240q69 -95 104 -240q0 -15 -9 -15q19 -170 69 -170q44 0 122 193q26 29 112 271l173 232q44 98 52 217q112 100 182 100q52 -15 52 -61q-139 -269 -139 -349q-27 -21 -155 -209q-105 -109 -130 -255 q0 -21 -165 -372q0 -40 -112 -77q-82 0 -173 124v15q0 244 -96 472q-34 43 -60 178q-146 323 -277 511q-61 0 -61 39z" />
<glyph unicode="W" horiz-adv-x="2030" d="M-22 1330q85 87 155 87q117 0 146 -134l-11 -16q83 -321 176 -522q63 -121 63 -182v-23q34 0 51 -127l52 -55q40 0 125 316q28 33 62 206q16 0 72 142l104 47q141 0 197 -142l62 -126q99 -333 176 -388h11q47 0 103 411q94 271 146 578l114 55q124 -26 124 -127v-47 q-15 -42 -83 -71q-62 -175 -83 -372q-18 0 -62 -166h10q-31 -88 -31 -190v-39q-31 -71 -31 -79v-8q0 -8 10 -8q-20 -33 -20 -48l10 -55q-41 -142 -124 -142q0 -7 -31 -24q-135 33 -145 63v16l10 16q-176 167 -176 348q-39 48 -125 221l-41 8q-23 -22 -42 -87l11 -39 q-187 -335 -187 -380q-41 -133 -41 -166v-32q-59 -63 -114 -63q-135 0 -156 47q-21 40 -31 40q10 43 10 63q-82 210 -82 222q10 15 10 23l-52 198q-78 153 -124 364q-114 241 -145 277q-67 58 -73 110z" />
<glyph unicode="X" horiz-adv-x="1350" d="M-5 83q0 84 45 115q0 13 98 77q58 67 121 161q22 12 203 238q181 148 181 192q-235 340 -317 346q-65 46 -75 77v77q26 84 98 84h8q73 0 120 -115l264 -361q0 -8 7 -8h8q179 180 218 323q50 46 113 46q129 -31 136 -54v-8q0 -52 -121 -107q-188 -182 -256 -346 q55 -29 369 -668q18 0 45 -61q23 0 38 -85q0 -46 -83 -92q-99 0 -181 269q0 17 -120 223q-15 84 -173 322h-15q-27 0 -211 -192q-57 -39 -174 -230q0 -28 -67 -77q-40 -160 -91 -215l-15 8q-49 -24 -105 -24h-15q0 26 -53 85z" />
<glyph unicode="Y" horiz-adv-x="1233" d="M-11 1286q0 102 56 123l72 28q135 -14 135 -110q0 -7 8 -21q-8 -12 -8 -27v-27q72 -178 295 -371q89 51 136 144q27 0 31 55q38 66 128 172q59 219 167 219q112 -15 112 -117q0 -59 -120 -130q-86 -63 -159 -219q-88 -110 -88 -213q-47 -128 -71 -137q-24 -48 -24 -89 l16 -28q-8 -49 -8 -55q8 -36 8 -41q-8 -12 -8 -27q16 -28 16 -48q0 -8 -8 -21l16 -96q-8 -12 -8 -27q23 -73 23 -124v-41q-41 -55 -87 -55q-112 34 -112 82q32 52 32 103q-8 21 -16 21l8 34v48l-8 41l8 14q0 280 -112 371q-47 45 -71 137q-122 124 -168 219q-13 3 -119 158 q-72 33 -72 55z" />
<glyph unicode="Z" horiz-adv-x="1124" d="M-34 1343q29 87 100 87l15 13l157 -67q0 14 315 34q68 -7 129 -7q0 16 100 40h36q85 0 114 -67q7 0 7 -6v-47l8 -33q-66 -76 -122 -86q-82 -30 -172 -247l-71 -146q-61 -165 -151 -286q-68 -217 -129 -279v-27h22q217 47 451 120q28 -7 50 -7l14 7q12 -7 36 -7l50 7 q129 -22 129 -67q0 -43 -208 -66q-100 -26 -100 -33l-36 6q-103 0 -365 -80q-143 -75 -143 -99h-21l-43 -7q-48 0 -86 60v46q0 54 93 113q64 99 122 260q100 181 164 339q129 239 165 339q21 2 50 93q14 0 14 14v13q-50 0 -57 7q-259 -7 -515 -47q-79 0 -122 113z" />
<glyph unicode="[" horiz-adv-x="758" d="M38 1142v36l42 48q348 45 348 90q8 24 54 24h24q60 -39 60 -78v-24q0 -32 -42 -54l-30 6h-6q-239 -42 -276 -42l-6 -12q12 -51 12 -60l-6 -96q0 -75 54 -378q6 -74 6 -78l-6 -30q17 -118 36 -150l-6 -30q0 -30 36 -30h12l294 30h84q78 -11 78 -66q-12 -36 -48 -36h-24 q-28 0 -60 6q-306 -31 -306 -78q-47 -66 -96 -66h-42q-72 52 -72 138l6 12q0 53 18 222v12q0 151 -42 276l6 12v6q-30 121 -30 282z" />
<glyph unicode="\" horiz-adv-x="569" d="M-18 1283q16 148 120 148q41 0 120 -230q180 -297 264 -609q26 0 78 -277q78 -212 96 -239v-9q0 -65 -72 -65q-74 42 -126 203q-30 220 -174 571q-125 287 -264 415q-33 84 -42 92z" />
<glyph unicode="]" horiz-adv-x="758" d="M61 1303q22 66 78 66h48q67 -48 150 -48q20 0 66 30h42q66 0 66 -84q0 -53 -24 -84v-12q0 -6 6 -6q-23 -45 -54 -294q6 -24 6 -42q-12 -2 -12 -12q0 -128 -18 -204v-138q0 -53 42 -108q-26 -138 -108 -138q-47 0 -132 -84q-7 0 -42 -36q-90 4 -90 42q0 76 102 108 q74 56 102 144q22 0 36 102q0 6 -6 6q0 6 6 18q-6 91 -6 126q18 52 18 144h-6l36 390q-6 12 -6 18h-6q-32 0 -54 6q-90 -6 -150 -24q-72 24 -72 48q0 20 -18 66z" />
<glyph unicode="^" d="M124 933q166 181 166 203q59 120 105 177q0 12 14 38l-5 10q11 43 61 70q49 0 85 -70q0 -12 140 -149q5 -51 130 -145q17 -22 60 -134q0 -14 -25 -26q-68 43 -121 59q-31 13 -60 90q-51 82 -115 140q-34 42 -80 59q-81 -106 -140 -210q-69 -79 -69 -133q-27 -64 -96 -64 q0 8 -30 32q-20 24 -20 53z" />
<glyph unicode="_" horiz-adv-x="1024" d="M75 -157q0 46 90 78h6l102 -24h30q145 0 306 54q183 24 276 24q30 -29 30 -66q0 -44 -90 -78q-56 12 -90 12h-24q-401 -72 -474 -72q-54 -19 -54 -30l-30 6l-24 -6q-54 69 -54 96v6z" />
<glyph unicode="`" horiz-adv-x="1024" d="M324 1299q30 84 72 84q34 0 42 -66v-48q74 -54 174 -66q6 -18 12 -18q-6 -30 -24 -30q-234 20 -234 66q-22 2 -42 78z" />
<glyph unicode="a" horiz-adv-x="922" d="M-1 339l11 26q-11 30 -11 66q117 385 182 478q9 79 88 79q20 0 77 32q39 0 55 20l17 -13l38 6q18 -13 28 -13q25 0 88 13q22 0 50 -52l-6 -46q11 -105 11 -124q-5 -13 -5 -20q11 0 11 -20q0 -6 -6 -6l6 -33v-59q0 -13 -11 -13l11 -79q-6 -10 -6 -32q15 0 28 -105l-6 -33 q23 -155 127 -308q143 -92 143 -151q0 -48 -22 -52q-204 60 -204 118q-42 31 -105 210q6 11 6 26h-11q-67 -171 -121 -171l-287 -85q-95 0 -165 197l11 19q-13 93 -22 125zM98 247l33 -78q0 -16 50 -20l22 13q22 -13 33 -13q231 49 231 118q22 124 22 210v131q0 11 -16 59 q11 21 11 32q-15 40 -39 138q6 11 6 26q-23 26 -55 26h-11q-171 -84 -171 -163q-24 0 -83 -171q-22 -76 -33 -236h6l-6 -13v-59z" />
<glyph unicode="b" horiz-adv-x="995" d="M-15 1323v36q50 70 87 70h15q71 0 103 -56v-43l8 -42q-16 -27 -16 -77v-57q87 -433 102 -443v-56h16q48 56 118 56q41 0 205 -49q9 0 24 7q163 0 197 -120q0 -16 47 -127v-77q0 -52 -71 -127q-99 -148 -236 -148l-229 -56q-2 -7 -79 -7q0 4 -86 77q-8 13 -8 29v70l16 21 q8 128 8 169l-24 70q16 0 16 15q-79 463 -134 626zM337 528q12 -58 33 -78v-7q0 -29 -9 -77l9 -14l-9 -28q0 -89 66 -120q221 15 221 49l114 141v14q0 113 -180 134l-16 -7q-41 21 -65 21h-25l-90 -28q-14 0 -41 14z" />
<glyph unicode="c" horiz-adv-x="905" d="M-14 443l7 34v13q0 7 -7 7q40 89 54 175q98 207 160 216q8 43 127 80q67 52 208 95q0 6 40 20l13 -7h87l34 27h6q114 -13 114 -61q13 -40 20 -40q0 -88 -100 -121h-7q-44 0 -100 47h-14q-287 -64 -287 -115q-148 -67 -148 -141q-73 -83 -73 -249q0 -55 33 -121l-6 -34 q27 -78 167 -128q43 -13 60 -13h13q108 0 335 134q13 47 40 47q40 0 54 -87q-37 -135 -121 -135q-97 -40 -281 -94h-40q-17 0 -60 13l-14 -6q-73 0 -220 148q-61 89 -61 128q-6 42 -6 94z" />
<glyph unicode="d" horiz-adv-x="1040" d="M-4 305q0 108 121 186q111 99 111 134q29 42 99 89h77q166 37 166 60q-11 140 -33 171l11 67l-11 15l33 67q0 119 -77 253q64 89 143 89q133 -44 133 -134q-28 0 -56 -82q15 -121 22 -126l-11 -37q34 -350 122 -350q8 -30 22 -30q-22 -29 -22 -82v-37q22 -27 66 -201v-89 q0 -112 -177 -216l-342 -67q-298 35 -298 112q-18 0 -99 208zM195 327q47 -178 187 -178h22q298 27 298 119v37l-33 104l11 45l-22 7l11 37l-55 60q-11 0 -11 -7q-8 0 -66 7q-155 0 -243 -127q-70 -54 -99 -104z" />
<glyph unicode="e" horiz-adv-x="909" d="M-3 551q0 60 104 331q67 85 110 101q89 64 181 64q81 0 220 -127q27 0 45 -146v-7q-47 -134 -58 -152q6 -12 6 -19q0 -85 -369 -204q-64 -31 -64 -63q45 -94 136 -134q103 -82 149 -82q93 0 233 51h25q73 0 91 -58v-25q0 -59 -104 -64l-6 -12q-37 3 -58 19h-7l-84 -32 q-186 0 -291 89q-60 44 -84 44q-58 60 -104 223q0 43 -52 102q0 15 -19 101zM120 526q6 -19 39 -19h71q103 61 214 95q84 95 84 191v19q0 17 -117 102h-65q-142 -99 -142 -109q-34 -56 -84 -216v-63z" />
<glyph unicode="f" horiz-adv-x="559" d="M1 328l5 28q0 7 -5 7l10 168l-5 14q8 50 24 279l-10 91q0 81 147 259l67 49q144 -56 171 -56q3 0 19 7q43 -32 43 -91q0 -35 -43 -35h-43q-9 0 -90 14v-7l-9 7h-19q-134 -34 -134 -175q-28 -37 -28 -98v-14q0 -49 76 -49q114 -15 114 -49q-11 -69 -86 -69l-109 -56 q-5 -140 -5 -210v-28q2 -86 57 -217q0 -105 -66 -105q-42 0 -71 147v14q9 101 9 105z" />
<glyph unicode="g" horiz-adv-x="899" d="M-10 752q37 209 120 209q65 67 100 67q30 0 231 75h10q71 -18 140 -82l-10 -38v-22q20 -18 20 -30q-10 -39 -10 -45l10 -15q0 -15 -10 -15l10 -74v-68q0 -17 10 -30q-10 -13 -10 -30l160 -605l-10 -15l20 -38q0 -104 -140 -209q-169 -97 -261 -97q-46 0 -70 -15h-160 q-110 7 -110 60q20 52 80 52h40q230 0 311 75q130 53 130 149q0 37 -60 225q0 72 -30 127l10 45q-29 0 -80 202h-10q-152 -75 -241 -75q-90 0 -160 67zM170 744q15 -30 30 -30h10q74 0 130 90q0 59 -90 67q-70 -17 -80 -127z" />
<glyph unicode="h" horiz-adv-x="1104" d="M-23 1290v7q3 13 18 13l-9 35q0 57 107 84h18q80 0 115 -63v-56q0 -17 -18 -62q0 -78 54 -119q0 -45 9 -118q-9 -72 -9 -112q19 -167 53 -314l18 -6q0 9 107 55q0 7 9 7h18q32 0 115 -42q59 0 170 -146q53 -89 133 -293q98 -104 98 -153q-17 -32 -36 -35h-62 q-71 22 -98 98l-142 265q-57 82 -125 104v14h-36q-62 0 -62 -174l9 -14q-7 -9 -18 -98l27 -70q-21 -104 -53 -104h-27q-89 0 -143 70l9 48v63q0 142 -124 879q-68 199 -125 237z" />
<glyph unicode="i" horiz-adv-x="514" d="M38 1143q77 59 112 59h37q93 -108 93 -118q18 0 37 -22q0 -52 -205 -52q-74 47 -74 133zM131 598v51q47 59 140 59q83 -37 83 -73l-9 -45q19 -2 19 -14q-22 -118 -28 -118l9 -52v-81q0 -130 93 -280v-15q0 -7 -37 -44q-154 0 -205 302q-6 0 -18 22q0 8 9 8 q-25 238 -56 280z" />
<glyph unicode="j" horiz-adv-x="510" d="M-12 112q20 78 57 78q5 0 79 -67q17 0 39 -11q126 0 153 78l23 107l-6 39q0 11 11 39q0 34 -51 459q18 84 74 84q51 0 79 -78v-6q-34 -78 -34 -134v-17l28 -252v-62q0 -12 6 -22l-17 -62q6 -30 6 -50q-71 -224 -125 -224q-36 0 -51 -11q-204 22 -231 34q-40 29 -40 78z M276 1114q0 66 57 95h11q79 -15 79 -106q-32 -68 -62 -68q-24 16 -79 28v6l6 11q-12 23 -12 34z" />
<glyph unicode="k" horiz-adv-x="1026" d="M-3 1388q53 62 109 62h17q73 0 108 -83q0 -52 -50 -159q0 -49 8 -186h9q-9 -14 -9 -21q34 -122 34 -393q17 -23 17 -35q-17 -45 -17 -62v-7q3 -14 17 -14q13 15 109 235v55q0 7 -9 7q25 116 159 221q33 35 75 35q126 -14 126 -104l8 -35l-108 -179q-118 -121 -118 -242 q0 -9 134 -96q1 -8 268 -166q0 -15 42 -48q0 -42 -59 -42q-50 41 -192 69q-148 118 -293 118l-8 -14v-7q58 -46 58 -118q0 -152 -201 -186l-117 48l-50 56v6q0 7 17 56q0 113 33 304q0 6 -8 6l8 35v69q0 107 -25 138l8 14l-8 14q0 14 8 14q-25 255 -41 255v28q0 28 8 76 q-40 157 -50 165l-9 14v55z" />
<glyph unicode="l" horiz-adv-x="522" d="M43 1342q65 115 153 115h20q96 -29 96 -115q-22 0 -48 -183q0 -17 9 -30q-9 -68 -9 -84q95 -818 153 -932v-46q0 -9 -77 -53q-94 0 -124 92q19 113 19 137q-134 900 -134 1015q-58 44 -58 84z" />
<glyph unicode="m" horiz-adv-x="1569" d="M-22 1043v9q48 102 119 102h51q32 -26 60 -26h17q43 51 77 51h94q8 0 8 9q171 0 171 -205q17 0 17 -25h17q156 179 213 179q50 0 145 -137h17q0 120 145 120q0 10 94 17q108 0 204 -512q26 -37 34 -136l-8 -60l8 -17q-51 -246 -77 -255h-17q-47 0 -59 221q8 33 8 68v9 q-34 133 -68 332q-19 145 -128 145h-8q-26 -35 -34 -162q8 -47 8 -68q0 -45 -17 -179l9 -60q-9 -74 -9 -85q9 -70 17 -85l-8 -17q8 -73 8 -119l-77 -69h-34q-38 0 -76 52q8 182 17 255q-9 15 -9 34q17 0 17 17v17q0 9 -8 9l8 17v51q0 9 -8 9l8 17q-58 314 -111 358 q-64 -42 -110 -137q8 -15 8 -34q-17 -2 -17 -17v-179q19 -144 34 -187l-8 -17q23 -185 59 -273l-8 -43q17 -28 17 -51q0 -56 -60 -94h-8q-114 0 -154 120q0 19 9 34q-23 307 -43 307l17 170q-72 477 -170 477h-9q-162 -91 -162 -230v-25q34 -188 34 -196q-8 -15 -8 -34v-9 q15 -40 42 -179l-8 -17v-9q17 -60 17 -68q0 -188 34 -298v-94q0 -11 -68 -68h-51q-94 78 -94 290v25q0 9 -9 9l9 17v111q0 28 -9 42l9 52v196q-60 305 -111 485q-15 0 -17 43z" />
<glyph unicode="n" horiz-adv-x="1108" d="M-2 878l6 44q50 54 94 54q4 0 9 -1q56 -8 56 -103q0 -30 -6 -68q7 -1 4 -23l-2 -14q-1 -8 -8 -7q9 -150 19 -151l7 -1q32 227 162 283q6 37 206 106l59 -15l1 7q116 -72 228 -157q58 -28 58 -72q0 -5 -1 -10q48 -88 86 -489q-2 -158 -7 -193q-16 -35 -38 -32 q-65 9 -74 152l12 35q0 394 -101 483q-65 84 -219 134q2 8 -5 9l-115 -44q-115 -83 -146 -167q-4 -26 -16 -65l6 -53l-42 -203q12 -259 31 -302q13 -4 12 -16l-6 -37q-8 -57 -51 -75q-34 12 -39 13q-24 -12 -42 -9q-30 4 -46 155l4 29q1 7 8 6q-35 325 -47 580q1 7 1 14 q0 47 -48 82q1 6 -10 121z" />
<glyph unicode="o" horiz-adv-x="1010" d="M32 299q0 504 135 650q75 34 136 34q22 0 61 -95q145 -27 298 -162q152 -92 250 -258q0 -109 -190 -271q-179 -162 -304 -162q0 -7 -27 -7h-61q-196 80 -196 122q-102 108 -102 149zM134 441q0 -183 47 -183q0 -69 196 -101q155 20 224 74q80 54 196 183v27 q-17 87 -203 224q-161 122 -305 122q-37 6 -74 6q-81 -102 -81 -352z" />
<glyph unicode="p" horiz-adv-x="1010" d="M-10 1166q0 204 276 204q102 0 191 16h106q216 0 307 -302q0 -180 -424 -228l-74 -49q-32 0 -32 -41l32 -97q-11 -15 -11 -33q40 -106 74 -399q0 -17 96 -163q-16 -82 -53 -82h-64q-53 0 -106 245q-28 73 -106 562q-62 285 -138 285q0 10 -74 82zM308 1044q0 -43 32 -74 q339 0 339 106q-55 155 -159 155h-10q-202 -82 -202 -147v-40z" />
<glyph unicode="q" horiz-adv-x="1024" d="M5 764q0 37 231 184v7h-10q112 99 160 99q11 0 30 7q200 -14 200 -71q30 -26 51 -99v-77q-21 -46 -31 -163q8 -78 20 -78q0 -85 -80 -85q-27 1 -110 64h-20v-7q20 -23 20 -42q-97 -43 -180 -43q-145 0 -221 127q-47 6 -60 177zM205 686q0 -70 131 -70q56 0 120 70v43 q-16 92 -90 92q-23 0 -140 -50v-42l-21 -21v-22zM506 474h10q18 -7 40 -7l30 14h60q109 -678 231 -791v-21q-16 -64 -80 -64q-74 0 -151 170l-60 268q0 7 10 7q-30 216 -90 424z" />
<glyph unicode="r" horiz-adv-x="692" d="M-7 919q0 52 57 85h38l304 -59q127 -28 127 -66q33 0 82 -125q-9 -27 -32 -39h-12q-48 61 -102 72q-75 26 -88 26l-13 -6q-46 20 -108 26q-120 0 -120 -46v-289q0 -7 6 -7l-6 -13q32 -102 63 -269q32 -73 32 -112q0 -51 -57 -105h-19q-76 29 -76 151q0 145 -19 145l6 13 q0 67 -19 118q0 27 -6 118l6 40q-12 0 -19 39l13 59l-6 60l6 46q-38 114 -38 138z" />
<glyph unicode="s" horiz-adv-x="702" d="M-1 40q0 65 60 73l39 -18q7 0 20 6l80 -6q46 0 46 12l33 -6h34q121 26 165 78q0 32 20 72q-7 19 -13 19l6 30v12q-23 102 -66 133q-136 132 -265 132q-159 59 -159 199q0 114 172 206q0 7 86 48q11 24 47 24h20q63 0 73 -78q-21 -67 -146 -67q-126 -66 -126 -114 q0 -97 146 -109q324 -201 324 -338l27 -72q-28 -127 -60 -127q-65 -92 -192 -133q-59 -1 -59 -18l-14 6h-73q-46 -2 -46 -12q-7 0 -20 6l-79 -6q-51 0 -80 48z" />
<glyph unicode="t" horiz-adv-x="674" d="M-11 683v18q50 96 82 96l42 -6q64 21 64 36v24l-58 150q-9 0 -24 48q22 84 77 84v-6l11 6h18q65 -8 65 -102l-12 -24q4 -54 12 -54q-6 -12 -6 -18q8 -61 23 -78q199 72 354 138h17q9 0 18 -18v-6q0 -49 -147 -114q-83 -55 -212 -102l-18 -24q19 -150 36 -168l-6 -30 l11 -42q0 -12 -5 -12q9 -222 23 -222v-18q0 -93 53 -168l6 -42q-12 -36 -47 -36q-83 0 -83 114q-8 0 -23 138l6 30l-6 12l6 12q-12 217 -47 384q0 12 -12 12h-18q-96 -96 -106 -96h-12q-82 38 -82 84z" />
<glyph unicode="u" horiz-adv-x="1059" d="M-13 1012q60 77 134 77q155 -16 155 -112q10 0 10 -7v-28q-53 0 -82 -181q20 -29 20 -42l-10 -49q8 -28 21 -28l-11 -14q31 -190 93 -300q21 -2 21 -14q-10 -13 -10 -21q40 -5 92 -125l31 -14h21q227 62 227 132q29 0 41 161q-10 70 -31 111h11q-31 36 -31 70v63l-73 119 q0 98 93 223l42 14q82 -33 82 -63l-10 -28q48 -88 62 -97l-11 -70v-14q4 -49 21 -49l-10 -14v-7q31 -24 41 -84q0 -7 -10 -7l10 -49v-83q-31 -250 -103 -356q-179 -119 -361 -133h-21q-227 47 -227 154l-103 244v14q0 57 -72 314l10 28q-8 42 -21 42l11 14z" />
<glyph unicode="v" horiz-adv-x="993" d="M-9 844q0 43 61 77q201 0 201 -112v-20q-17 0 -17 -21q0 -10 139 -308q34 -133 62 -147h8q210 488 210 573q18 140 70 140l44 35q87 0 87 -98v-14q-35 0 -105 -251q-183 -393 -183 -552q8 -39 8 -56q-35 -87 -96 -98q-131 19 -131 175q-87 161 -209 433q-70 105 -140 182 q-9 37 -9 62z" />
<glyph unicode="w" horiz-adv-x="1415" d="M-7 979q0 4 10 37q-10 12 -10 19q0 39 126 69q68 0 126 -81v-7q0 -17 -29 -118l20 -44v-56q38 -163 165 -425l19 -7h19v44l-19 19v62q0 72 155 82q133 -43 156 -88l-10 -37l194 -163h10q54 0 77 469v25l-9 12l9 13q-9 105 -9 162v7q0 94 165 187h38q49 -15 49 -37 l-39 -63h10q-87 -103 -87 -175q0 -14 9 -25q-9 -34 -9 -56v-13q0 -73 19 -100q-19 -20 -19 -37q0 -21 9 -31l-39 -338l10 -12l-10 -38v-19l30 -81q0 -17 -127 -75q-87 22 -87 31q-61 69 -223 188q-34 37 -88 37q-26 -46 -58 -181q20 -40 20 -44q0 -106 -136 -106 q-107 4 -107 63q0 9 19 56q0 42 -174 475q-88 195 -156 387q-19 0 -19 13z" />
<glyph unicode="x" horiz-adv-x="1010" d="M-11 77q0 77 47 92l101 73q0 11 78 52q167 167 195 277q-170 270 -226 283q0 8 -31 59l8 39v20q66 33 101 33q109 -14 109 -138q62 -125 102 -152q40 29 148 185q10 0 117 105q27 0 70 13q44 0 70 -53q0 -70 -117 -105q-113 -67 -148 -178q-47 -48 -47 -72v-46 q367 -519 367 -572l-31 -20h-16q-89 0 -187 191q-13 0 -117 177q-83 119 -94 119q-252 -283 -288 -441q-80 -33 -133 -33q-78 50 -78 92z" />
<glyph unicode="y" horiz-adv-x="868" d="M-6 941q28 63 124 63h53q18 -18 45 -91q-53 -98 -53 -168q0 -86 79 -147h80q133 101 151 168q9 0 9 7v7l-62 133q0 88 115 119h62q105 -44 116 -84l-9 -28q0 -7 9 -21q-9 -93 -36 -140q62 -360 80 -581l-9 -14l9 -42v-7q-11 -113 -133 -294q-114 -91 -204 -91 q-20 -21 -62 -21h-45q-82 0 -150 98q0 63 71 63q51 -28 62 -28q225 0 292 189l27 161q-25 357 -62 357h-9q-152 -73 -275 -84h-53q-133 0 -187 133l-8 35v245q-27 27 -27 63z" />
<glyph unicode="z" horiz-adv-x="727" d="M-8 88v28q83 47 83 83q6 35 106 173q6 0 33 55l-6 12q0 14 39 100q0 25 161 289v17q-5 17 -33 17q-104 0 -122 -17l-33 6q-62 -27 -123 -73q-12 0 -22 -5q-54 15 -72 39q0 100 111 100q24 22 222 50q58 19 67 28q18 0 27 -6q3 0 23 6q107 -17 116 -28l-5 -11v-6 q11 -39 11 -44q-211 -286 -211 -357q-13 -2 -33 -89q-5 0 -100 -172v-12l5 -11q156 84 289 84q64 0 127 -106q0 -19 6 -28q-9 -28 -28 -28q-13 0 -100 51l-50 11h-11q-217 -47 -299 -145l-50 -84q-2 -3 -56 -22q-72 17 -72 95z" />
<glyph unicode="{" d="M305 567v55q0 87 89 110h17l63 -7q2 15 17 15q0 84 -62 205q-18 62 -18 94q36 123 36 197h-9q32 140 213 298q22 71 44 71h53q98 -13 98 -86v-24q-47 -94 -177 -157q-54 -69 -54 -205q-10 0 -17 -78q0 -45 88 -181l-9 -55v-71q0 -8 9 -8q-17 -48 -17 -63q8 -41 8 -78 q-12 -1 -70 -87q17 -78 17 -102q-9 -41 -9 -47q0 -15 18 -55l-80 -204v-40q22 -33 45 -102l159 -181q62 -20 62 -47q-20 -47 -35 -47h-9q-106 0 -408 228q0 47 -18 47q0 97 80 330q-18 87 -26 87l8 15v24q-17 57 -106 149z" />
<glyph unicode="|" d="M392 1290q16 142 72 177l32 22q121 -38 121 -121q11 0 24 -34q0 -60 -56 -176q-8 -43 -8 -89v-33q0 -135 -8 -331q24 -141 24 -154q0 -12 -8 -34l16 -198q0 -12 -8 -33q19 -541 56 -541v-22q-16 -144 -88 -144h-8q-105 0 -105 166q16 71 16 99l-40 640v332q0 39 -8 99 q0 11 8 11l-8 55v88q0 46 8 122z" />
<glyph unicode="}" d="M38 1482q18 25 18 39l-9 15q0 25 108 46l108 -8q92 38 161 38q70 -12 144 -221q-9 -41 -9 -69q0 -8 9 -23q-18 -146 -72 -320v-38q0 -85 54 -137q14 0 144 7q70 0 108 -137q-35 -63 -153 -129q-18 -58 -18 -107v-8q18 -74 18 -84q0 -39 -72 -167q-83 -290 -161 -290 q0 -23 -126 -76q0 -21 -108 -46h-9q-59 0 -72 46q0 17 108 76l126 122q116 209 116 282v61q0 21 -18 46l9 38q0 17 -9 30q18 115 18 145q0 33 -80 46q-72 115 -72 213q27 41 45 115l-9 30l36 122q0 6 -9 46q0 19 18 107q-53 122 -81 122q-88 -52 -144 -54q-108 41 -108 122 h-9z" />
<glyph unicode="~" d="M123 658q71 169 102 210q19 18 168 48h24q27 -8 108 -126l114 -78l42 6h60q16 7 78 114q6 0 18 6q35 0 66 -42q0 -30 -42 -102l6 -42q-66 -84 -84 -84l-30 -6q-10 2 -48 30h-6q-30 0 -72 -12q-75 0 -174 114q-28 54 -72 54h-60q-48 -21 -48 -54q18 -23 18 -36 q-24 -90 -54 -90h-6q-71 0 -108 90z" />
<glyph unicode="&#xa3;" d="M14 630q0 106 146 122q60 0 60 31q-120 142 -120 190v23q0 233 200 351q0 20 59 76h47q80 -57 80 -137v-8q-47 0 -47 -46q-212 -26 -212 -182q0 -101 106 -183v-16h46l239 138q42 0 140 23l26 -23q-13 -35 -26 -38l-33 7q-306 -206 -359 -259q0 -37 -20 -107q13 -7 20 -7 q181 48 226 68l6 -15q-38 -54 -166 -114q-166 -91 -166 -183q0 -12 -13 -31v-7q0 -11 20 -23h7q596 305 637 305q40 -8 40 -23v-23q-38 -77 -359 -198q-2 -12 -259 -160q-37 -31 -139 -153q-47 -30 -66 -30q-93 0 -93 160q0 35 73 84q20 39 20 76q-71 26 -93 69v68l46 54v7 q-60 44 -60 99q-13 0 -13 15zM187 554h20v23h-7q-13 -2 -13 -15v-8z" />
<glyph unicode="&#xa7;" d="M10 548q0 7 9 65l-9 17q19 130 103 272q0 120 140 197q240 257 374 297q9 33 65 33q103 -20 103 -107v-25q0 -62 -187 -115q-93 -105 -93 -124q-32 0 -47 -57q0 -19 84 -50q243 -129 243 -239q9 0 28 -33l-10 -16v-58l-9 -99q9 0 9 -8q-28 -8 -28 -49l113 -50 q0 -21 74 -74q0 -37 10 -49q-10 -15 -10 -33l19 -25v-16q-33 -36 -84 -173q-57 -115 -140 -140q-153 -69 -224 -132q-171 -132 -299 -132q0 -19 -150 -33q-60 21 -65 41v8q0 89 140 149l19 -9q166 11 439 223q85 156 102 156q10 16 10 25q-28 58 -84 58q-29 0 -225 -74 l-242 57q-82 52 -159 206l-10 58q10 14 10 41q-19 0 -19 17zM234 646q55 -107 122 -107q168 37 168 58l19 -8h46l10 33q-19 164 -131 164h-47q-187 -57 -187 -140z" />
<glyph unicode="&#xa8;" horiz-adv-x="1024" d="M305 1202q0 102 54 102q50 0 90 -42v-30q0 -64 -60 -72q-84 10 -84 42zM539 1226q0 132 72 132q84 -27 84 -72v-30q-22 -72 -96 -72q-28 10 -60 42z" />
<glyph unicode="&#xa9;" horiz-adv-x="1674" d="M111 496l8 56l-8 48q25 107 25 185v32l93 168q0 24 59 96q0 37 152 208q14 0 93 72q201 88 245 88q87 0 245 40q139 -48 177 -152q0 -22 186 -248l76 -176q29 -33 59 -209q-25 -56 -25 -112q8 -42 8 -48q-62 -200 -127 -200q-23 -42 -295 -256q0 -26 -93 -40 q0 -24 -110 -48l-17 8q-100 -16 -228 -24q-142 64 -219 64q-186 118 -186 200q-35 0 -118 248zM263 568q97 -392 363 -392l42 -8h26q34 0 67 8q34 -8 59 -8q316 110 372 224q41 1 101 120q76 0 76 241v8q0 49 -127 168v88l-84 152q-11 0 -93 64q-6 0 -51 -8q-84 15 -109 72 h-9l-50 -8l-43 8q-44 -12 -177 -80q-57 0 -76 -48q-73 0 -211 -320q17 -27 17 -48h-9l-16 8l-34 -40v-57q-34 -107 -34 -144zM508 761q8 15 8 24q0 6 -8 48q8 42 8 80h-8q106 160 219 160q198 -24 254 -24v8q50 0 93 -128q-28 -96 -85 -96h-59q-23 0 -169 80q-84 0 -84 -80 v-64l-17 -24q0 -56 84 -145q0 -40 110 -40q171 13 177 32l34 -24q-51 -128 -194 -128q-329 20 -329 128l-26 40v80q0 29 -8 73z" />
<glyph unicode="&#xad;" horiz-adv-x="670" d="M35 472q0 78 102 78h102q6 0 6 6l12 -6h78q85 0 156 24l12 -6h24l18 12q43 -6 48 -6l12 6q20 0 48 -48q0 -66 -216 -66q-176 0 -306 -84h-6q-79 0 -90 90z" />
<glyph unicode="&#xae;" horiz-adv-x="1674" d="M13 557v101q0 186 105 404q53 47 53 117q48 0 175 132q13 0 131 101h9q59 0 105 8q46 -8 87 -8q7 0 114 39q111 0 166 -101l245 -109q85 -24 175 -155q254 -260 254 -443q-61 -40 -201 -334l-158 -210q-174 -95 -324 -109q-377 0 -481 93q-48 0 -210 163 q-232 180 -236 265h9q-18 25 -18 46zM162 775l9 -39v-78q0 -208 358 -435q128 -54 158 -54q17 8 26 8q14 -47 210 -47q289 45 289 109q236 241 236 458q-35 147 -87 218q-34 25 -88 109q-20 0 -166 124q-155 56 -166 78q-114 -6 -114 -16q-29 16 -53 16l-17 -8 q-13 39 -114 39h-44q-126 0 -201 -101q-34 0 -105 -109q-70 -84 -131 -272zM468 1055q0 98 105 116h18q57 0 148 -54q18 0 202 -140l17 -93q0 -106 -114 -233v-24q1 -8 193 -140q166 -98 166 -171v-15q0 -12 -35 -31h-9q-64 0 -210 124l-245 148h-26q0 -8 -9 -24 q15 -38 44 -38q9 -78 9 -117l-88 -70q-140 0 -140 101l9 31l-17 47q8 79 8 124v31q0 10 -17 86v8q0 33 17 62q-8 42 -8 62l8 70h-8l8 15v16q0 21 -17 46l9 32zM652 853q70 -33 70 -55l17 -8q53 0 53 39l-70 101q0 8 -9 8h-35q-12 0 -26 -23v-62z" />
<glyph unicode="&#xb0;" horiz-adv-x="674" d="M78 1045l8 15q0 30 -8 79q0 20 92 181q0 33 45 58q0 46 77 58q165 0 229 -275l-46 -108q-132 -145 -198 -145q0 13 -69 22q-130 110 -130 115zM223 1111q15 -44 92 -44q67 0 84 109q-13 94 -38 94q-45 -65 -123 -94q-15 -47 -15 -65z" />
<glyph unicode="&#xb1;" d="M156 544q9 102 66 102q0 6 18 6h48q72 0 156 60l-6 24l6 36q-23 48 -30 48q0 6 -6 6l18 102v12l54 36q102 0 102 -60q12 -39 12 -54v-24l-30 -42v-48h12l198 48h24q30 0 72 -42q0 -27 -114 -72q-16 -20 -174 -48l-6 -12q-6 -109 -6 -138h24q37 0 132 30l24 -6 q0 -60 -162 -132q-28 -27 -186 -102q0 -12 -12 -12h-12q-22 0 -90 30v18l-6 72q22 28 54 42l42 -6h36q33 0 48 24v48q0 78 -18 78h-6q-69 -15 -138 -84q-36 -4 -36 -12q-47 11 -108 72z" />
<glyph unicode="&#xb4;" horiz-adv-x="1024" d="M360 1125q0 30 90 84q79 116 108 180l30 24h24q36 -11 54 -72q0 -72 -54 -96q-77 -71 -222 -162q-30 8 -30 42z" />
<glyph unicode="&#xb6;" horiz-adv-x="1024" d="M93 1086q0 157 107.5 253t285.5 96h443v-70h-127v-1365h-82v1365h-166v-1365h-84v738q-174 8 -275.5 102.5t-101.5 245.5z" />
<glyph unicode="&#xb7;" horiz-adv-x="508" d="M156 704q0 39 84 84q102 -15 102 -90q0 -55 -96 -102q-90 37 -90 108z" />
<glyph unicode="&#xc7;" horiz-adv-x="1399" d="M90 579q10 14 10 42q0 8 -10 8l10 17l-10 58q0 19 211 432q30 20 50 158q40 66 130 66h30q28 0 100 -42q30 0 30 -8l-10 -33q10 -16 10 -25q0 -83 -180 -191q-177 -238 -191 -307v-9q0 -8 10 -8q-16 -17 -30 -133q0 -224 161 -224q0 -9 20 -9q308 31 561 100 q50 33 231 249h30q16 0 40 -33q0 -150 -180 -332q-76 -50 -381 -83q-15 -47 -40 -75v-8h20q99 66 210 66q271 -87 271 -208q0 -146 -121 -249q0 -42 -210 -191q-84 -38 -160 -58q-51 12 -51 58v17q361 190 361 415q-55 33 -150 33q-70 -17 -100 -74q-35 0 -60 -92 q-77 -50 -131 -50q-120 44 -120 158q20 34 20 50q0 158 -60 158q-166 0 -231 91q-90 95 -90 266z" />
<glyph unicode="&#xdf;" horiz-adv-x="1251" d="M-8 1204q11 61 11 99q96 81 147 81q134 45 326 45h42q133 0 189 -225q-10 -18 -10 -27l10 -54q-10 -138 -52 -234v-9h10q23 0 211 108q43 0 84 9q168 -27 168 -180l-21 -9l10 -36q-147 -328 -189 -478q-8 0 -52 -72l10 -45q-21 0 -31 -72l-74 -54h-21q-78 0 -137 90 q0 37 158 270q31 184 52 199l-10 45q10 34 10 72l-21 9h-21q-236 -159 -273 -235q-20 -9 -32 -9v-45q123 -485 200 -567q-6 -135 -126 -135h-21q-42 0 -116 369q-229 849 -315 946q-87 74 -116 144zM329 1060q46 -252 84 -252h10q105 178 105 306q-34 18 -63 18h-42 q0 -29 -94 -54v-18z" />
<glyph unicode="&#xe0;" horiz-adv-x="922" d="M81 299q54 386 150 450q60 42 108 42q91 -41 114 -90q48 -82 60 -186q28 -108 198 -300q14 0 78 -78q36 0 36 -42q-8 -30 -42 -30q-50 0 -252 210q-44 70 -54 72q-159 -186 -306 -186h-6q-84 34 -84 138zM153 1127q0 132 72 132q0 18 12 18h30q33 0 78 -78l-6 -12 q0 -71 42 -96q137 -178 204 -222q6 -10 6 -24v-6l-18 -18q-106 0 -288 222q-23 18 -54 18v-6q-27 0 -72 72h-6zM189 299q0 -9 18 -18h30q133 67 174 156q0 5 6 48q-21 72 -102 102q-11 0 -48 12q-50 -40 -78 -234v-30l6 -12q-6 -10 -6 -24z" />
<glyph unicode="&#xe7;" horiz-adv-x="905" d="M61 256q6 9 6 26q0 5 -6 5l6 10l-6 36q0 12 130 266q18 12 31 97q25 41 80 41h19q17 0 62 -26q18 0 18 -5l-6 -20q6 -10 6 -15q0 -52 -111 -118q-110 -147 -118 -189v-5q0 -6 6 -6q-10 -10 -18 -81q0 -139 99 -139q0 -5 12 -5q190 19 347 62q30 20 142 153h18 q10 0 25 -20q0 -93 -111 -205q-47 -31 -235 -51q-9 -29 -25 -46v-5h12q62 41 130 41q167 -54 167 -128q0 -91 -74 -154q0 -26 -130 -117q-52 -24 -99 -36q-31 7 -31 36v10q223 117 223 256q-35 20 -93 20q-43 -10 -62 -46q-21 0 -37 -56q-47 -31 -80 -31q-74 27 -74 97 q12 21 12 31q0 97 -37 97q-102 0 -142 57q-56 58 -56 163z" />
<glyph unicode="&#xe8;" horiz-adv-x="909" d="M34 204l6 46l-6 10l13 31q-13 54 -13 116q10 49 159 219q34 0 122 66q29 0 89 30q145 0 236 -81q19 -53 19 -61q0 -70 -121 -132q-44 -32 -338 -127q-11 5 -26 5l-6 -10v-117q56 -25 166 -46q0 -40 223 -40v-5q101 0 204 25q33 0 38 -35q-55 -56 -229 -92q-37 0 -102 -5 q-268 30 -268 66q-105 42 -166 137zM168 992q0 64 51 86h6q82 0 141 -61q136 -95 299 -142q89 -81 89 -92v-20q-6 -20 -31 -20q-218 99 -332 137q-44 32 -191 76q-32 24 -32 36zM219 473l45 6l44 -6q159 33 217 87v25q0 8 -45 26h-25q-18 0 -38 -11q-13 6 -20 6 q-81 -14 -140 -66q-38 -42 -38 -56v-11z" />
<glyph unicode="&#xe9;" horiz-adv-x="909" d="M45 292q0 74 142 235q31 3 98 75q36 0 87 36q114 -16 148 -16h6q22 0 55 4q97 -11 154 -71q37 -33 37 -56q-6 -34 -68 -80q-28 -62 -117 -95q-101 -35 -228 -56q0 -5 -55 -16q0 -9 -99 -36v-12l62 -52q60 -43 123 -43l12 4q98 -30 167 -36l172 16q62 -12 62 -40 q0 -3 -49 -44q-73 4 -105 4h-12q-72 -12 -161 -12q-69 0 -148 28q-166 33 -166 80q-63 45 -92 127q-9 0 -19 12v24q0 13 -6 20zM57 674v4q0 26 124 40l277 123q135 88 172 88q8 4 44 4h24q0 -30 -209 -139q0 -7 -68 -36q-24 -17 -185 -92q-54 -56 -117 -56q-62 15 -62 64z M199 379q3 -24 191 -28v4l12 -4q88 0 216 104l31 40v8q-22 20 -93 52q-264 -8 -264 -72q-50 -61 -93 -104zM261 714l6 -8q12 4 18 4v4l-6 8q-12 -4 -18 -4v-4zM316 730h6q13 0 13 8l-13 4h-6v-12zM359 750l13 -4q24 6 24 12v4h-18q-9 0 -19 -12z" />
<glyph unicode="&#xf9;" horiz-adv-x="1059" d="M119 713l6 24q-6 23 -6 48q28 54 72 54q102 0 102 -72v-30q0 -21 -48 -84q0 -30 -12 -30l54 -270q15 0 48 -66q31 -54 204 -96h12q134 0 246 174l6 54q0 19 -18 84q8 0 24 54q0 69 -48 120q-35 34 -54 108q10 72 66 72h30q44 -78 84 -78q42 -53 42 -72v-12q0 -24 -12 -78 l24 -108q-54 -113 -54 -174q-36 -93 -72 -156l-198 -108q-13 0 -24 -6q-32 6 -54 6h-48q-131 34 -204 108q-95 0 -132 270h-6q0 6 6 18q-24 120 -36 246zM263 1181v54q16 0 42 42h6q81 0 162 -78q20 0 90 -66q12 0 84 -42q72 0 90 -42q0 -48 -96 -48q-120 33 -198 90 q0 14 -84 36l-24 -6q-72 20 -72 60z" />
<glyph unicode="&#x2c6;" horiz-adv-x="1024" d="M195 1103q140 119 140 134q50 79 89 116q0 8 12 25l-4 7q9 28 51 46q42 0 72 -46q0 -8 118 -98q5 -34 110 -96q15 -14 51 -88q0 -9 -21 -17q-58 28 -102 39q-27 8 -51 59q-43 54 -97 92q-29 28 -68 39q-68 -70 -118 -138q-59 -52 -59 -88q-22 -42 -81 -42q0 5 -25 21 q-17 16 -17 35z" />
<glyph unicode="&#x2dc;" horiz-adv-x="1024" d="M110 1153q71 169 102 210q19 18 168 48h24q27 -8 108 -126l114 -78l42 6h60q16 7 78 114q6 0 18 6q35 0 66 -42q0 -30 -42 -102l6 -42q-66 -84 -84 -84l-30 -6q-10 2 -48 30h-6q-30 0 -72 -12q-75 0 -174 114q-28 54 -72 54h-60q-48 -21 -48 -54q18 -23 18 -36 q-24 -90 -54 -90h-6q-71 0 -108 90z" />
<glyph unicode="&#x2000;" horiz-adv-x="806" />
<glyph unicode="&#x2001;" horiz-adv-x="1612" />
<glyph unicode="&#x2002;" horiz-adv-x="806" />
<glyph unicode="&#x2003;" horiz-adv-x="1612" />
<glyph unicode="&#x2004;" horiz-adv-x="537" />
<glyph unicode="&#x2005;" horiz-adv-x="403" />
<glyph unicode="&#x2006;" horiz-adv-x="268" />
<glyph unicode="&#x2007;" horiz-adv-x="268" />
<glyph unicode="&#x2008;" horiz-adv-x="201" />
<glyph unicode="&#x2009;" horiz-adv-x="322" />
<glyph unicode="&#x200a;" horiz-adv-x="89" />
<glyph unicode="&#x2010;" horiz-adv-x="670" d="M35 472q0 78 102 78h102q6 0 6 6l12 -6h78q85 0 156 24l12 -6h24l18 12q43 -6 48 -6l12 6q20 0 48 -48q0 -66 -216 -66q-176 0 -306 -84h-6q-79 0 -90 90z" />
<glyph unicode="&#x2011;" horiz-adv-x="670" d="M35 472q0 78 102 78h102q6 0 6 6l12 -6h78q85 0 156 24l12 -6h24l18 12q43 -6 48 -6l12 6q20 0 48 -48q0 -66 -216 -66q-176 0 -306 -84h-6q-79 0 -90 90z" />
<glyph unicode="&#x2012;" horiz-adv-x="670" d="M35 472q0 78 102 78h102q6 0 6 6l12 -6h78q85 0 156 24l12 -6h24l18 12q43 -6 48 -6l12 6q20 0 48 -48q0 -66 -216 -66q-176 0 -306 -84h-6q-79 0 -90 90z" />
<glyph unicode="&#x2013;" horiz-adv-x="1076" d="M35 472q0 78 169 78h169q10 0 10 6l20 -6h129q141 0 259 24l19 -6h40l30 12q71 -6 80 -6l19 6q34 0 80 -48q0 -66 -358 -66q-292 0 -507 -84h-10q-131 0 -149 90z" />
<glyph unicode="&#x2014;" horiz-adv-x="2100" d="M35 472q0 78 338 78h338q20 0 20 6l40 -6h258q282 0 517 24l40 -6h79l60 12q143 -6 159 -6l40 6q66 0 159 -48q0 -66 -716 -66q-583 0 -1014 -84h-20q-262 0 -298 90z" />
<glyph unicode="&#x2018;" horiz-adv-x="557" d="M149 1380q30 84 72 84q34 0 42 -66v-48q74 -54 174 -66q6 -18 12 -18q-6 -30 -24 -30q-234 20 -234 66q-22 2 -42 78z" />
<glyph unicode="&#x2019;" horiz-adv-x="557" d="M104 1228q0 30 90 84q79 116 108 180l30 24h24q36 -11 54 -72q0 -72 -54 -96q-77 -71 -222 -162q-30 8 -30 42z" />
<glyph unicode="&#x201a;" horiz-adv-x="557" d="M192 -279q0 35 18 102v12l-12 42q31 180 108 180q48 -34 48 -78q-108 -144 -108 -246q-14 0 -18 -30h-18q-9 0 -18 18z" />
<glyph unicode="&#x201c;" horiz-adv-x="910" d="M219 1338v24q0 34 60 60q78 -22 78 -114q-12 -24 -12 -42q4 -30 78 -84q24 -46 24 -60v-6l-6 -30h-6q-82 0 -174 150q0 17 -42 102zM411 1386q16 84 54 84q96 0 96 -78q0 -105 108 -264v-6q0 -12 -12 -12q-35 0 -114 78q-16 0 -96 150q-10 0 -36 48z" />
<glyph unicode="&#x201d;" horiz-adv-x="910" d="M217 1164v19q14 115 48 221l-7 26q28 74 55 84h14q103 -17 103 -84v-20q-90 -89 -158 -259l-21 -13h-7q-10 0 -27 26zM395 1034q83 330 83 370q34 24 96 39q75 0 75 -52q0 -34 -75 -117q0 -30 -69 -116q-39 -99 -89 -143q-5 0 -21 19z" />
<glyph unicode="&#x201e;" horiz-adv-x="910" d="M264 -111q14 115 48 221l-7 26q28 74 55 84h14q103 -17 103 -84v-20q-90 -89 -158 -259l-21 -13h-7q-10 0 -27 26v19zM442 -260q83 330 83 370q34 24 96 39q75 0 75 -52q0 -34 -75 -117q0 -30 -69 -116q-39 -99 -89 -143q-5 0 -21 19z" />
<glyph unicode="&#x2022;" horiz-adv-x="1024" d="M309 632q48 254 287 257q96 -97 96 -160q0 -129 -223 -193z" />
<glyph unicode="&#x202f;" horiz-adv-x="322" />
<glyph unicode="&#x2039;" horiz-adv-x="631" d="M150 420v2q0 21 71 69q15 11 37 40q17 5 68 66q21 28 25 28l-2 5q0 26 28 38q37 0 54 -24v-16q0 -14 -43 -38q-51 -40 -79 -73q-43 -31 -43 -50q-12 0 -20 -35v-5q0 -5 91 -31l32 -21q90 -42 90 -69q3 0 6 -7q0 -2 -3 -2l3 -12q0 -9 -11 -14h-12q0 10 -91 64 q-49 36 -170 52q-31 18 -31 33z" />
<glyph unicode="&#x203a;" horiz-adv-x="631" d="M129 653v10q11 38 30 38q1 5 22 8q34 -14 39 -30q0 -17 67 -42q21 0 82 -43q11 -8 46 -11q23 -14 30 -54q-7 -3 -15 -29l-134 -121q0 -6 -39 -65q-24 -72 -61 -72q-18 0 -18 16q0 26 21 46q42 78 97 145q34 26 49 53v24q-10 35 -88 68q-79 32 -104 34q0 3 -24 25z" />
<glyph unicode="&#x205f;" horiz-adv-x="403" />
<glyph unicode="&#x20ac;" d="M-49 344v20q0 63 79 109q6 0 48 -10q142 27 142 49v20q0 20 -16 20q-71 -40 -71 -50q-126 0 -158 198v10q22 79 87 129h16l118 -60q56 0 167 416q71 218 198 218l8 19q15 -9 23 -9q30 0 190 49h8l103 -30l-16 -118q8 -20 8 -30q-34 -119 -103 -119h-23q-34 28 -72 69h-39 q-151 0 -151 -138l-103 -238v-29h56q44 33 324 109q20 39 182 39q24 -38 24 -59q-121 -87 -617 -267v-10q0 -23 8 -40q-8 -17 -8 -39q15 -10 23 -10q244 99 317 99q0 17 103 19l8 -19v-10q-29 -60 -325 -178q-103 -50 -103 -80q11 0 95 -178q106 -56 254 -89q81 0 237 159 h16q2 -40 16 -40q-21 -118 -166 -247q-42 0 -72 -30h-95q-251 49 -356 158l-55 79q-8 39 -8 80h-32q-107 -75 -119 -89h-7q-143 22 -143 148z" />
<glyph unicode="&#x2122;" horiz-adv-x="1497" d="M136 1227q0 66 96 66q16 44 204 96q58 36 186 84q0 6 18 12q6 0 36 -24l54 6q21 0 66 -66q8 0 36 -48q58 -72 66 -72h6q0 26 24 78q0 13 -6 66q0 69 96 90q96 -61 102 -96q38 -38 66 -180q0 -33 -6 -84q24 -34 30 -138q4 0 12 -18q-8 -30 -18 -30h-6q-33 0 -78 108 q-18 102 -42 162l6 12q-22 72 -54 72q-20 -6 -24 -24l42 -180v-6q-14 0 -60 -60l-42 -6q-54 54 -108 144q-68 66 -96 66q0 -12 -12 -12q20 -234 54 -234q7 0 12 -24q-17 -90 -78 -90h-48q-48 24 -48 96q12 42 18 42q-6 12 -6 18q0 30 6 72l-6 42l6 30l-6 30l12 162l-12 6 l-180 -90q-22 0 -30 -180l6 -12q-12 -40 -24 -198q12 -25 12 -36q-6 -51 -6 -78h-12q-72 33 -72 156q-5 22 -12 138q6 10 6 30h-6l6 12v18q0 15 -24 18q-52 -48 -90 -48q-72 0 -72 102z" />
<glyph unicode="&#xe000;" horiz-adv-x="1020" d="M0 0v1020h1020v-1020h-1020z" />
</font>
</defs>
</svg>
